<?xml version="1.0" encoding="UTF-8"?>
<svg xmlns="http://www.w3.org/2000/svg" xmlns:xlink="http://www.w3.org/1999/xlink" viewBox="0 0 580 680">
  <defs>
    <style>
      .cls-1 {
        fill: url(#linear-gradient-2);
      }

      .cls-2 {
        fill: #ffc20e;
      }

      .cls-3 {
        fill: #f05b50;
      }

      .cls-4 {
        fill: #fff;
      }

      .cls-5 {
        fill: #88036a;
      }

      .cls-6 {
        fill: #b32317;
      }

      .cls-7 {
        fill: url(#linear-gradient-17);
      }

      .cls-8 {
        fill: url(#linear-gradient-15);
      }

      .cls-9 {
        fill: url(#linear-gradient-18);
      }

      .cls-10 {
        fill: #e877af;
      }

      .cls-11 {
        fill: #c6006f;
      }

      .cls-12 {
        mix-blend-mode: multiply;
        opacity: .2;
      }

      .cls-13 {
        fill: #424898;
      }

      .cls-14 {
        fill: url(#linear-gradient-14);
      }

      .cls-15 {
        fill: url(#linear-gradient-20);
      }

      .cls-16 {
        fill: url(#linear-gradient-6);
      }

      .cls-17 {
        isolation: isolate;
      }

      .cls-18 {
        fill: #a0ce67;
      }

      .cls-19 {
        fill: #9d471f;
      }

      .cls-20 {
        fill: #ffde75;
      }

      .cls-21 {
        fill: url(#linear-gradient-11);
      }

      .cls-22 {
        fill: #936f57;
      }

      .cls-23 {
        fill: #d6aa87;
      }

      .cls-24 {
        fill: #8071b4;
      }

      .cls-25 {
        fill: #e56d7b;
      }

      .cls-26 {
        fill: #2f2f30;
      }

      .cls-27 {
        fill: url(#linear-gradient-10);
      }

      .cls-28 {
        fill: #efceb9;
      }

      .cls-29 {
        fill: #c6d234;
      }

      .cls-30 {
        fill: url(#linear-gradient-16);
      }

      .cls-31 {
        fill: #eabea0;
      }

      .cls-32 {
        fill: #72401a;
      }

      .cls-33 {
        fill: #362b29;
      }

      .cls-34 {
        fill: url(#linear-gradient-21);
      }

      .cls-35 {
        fill: url(#linear-gradient-5);
      }

      .cls-36 {
        fill: #494949;
      }

      .cls-37 {
        fill: #d6574d;
      }

      .cls-38 {
        fill: #f47c29;
      }

      .cls-39 {
        fill: url(#linear-gradient-7);
      }

      .cls-40 {
        fill: #fcb315;
      }

      .cls-41 {
        fill: #5a3d1c;
      }

      .cls-42 {
        fill: #e0b79b;
      }

      .cls-43 {
        fill: url(#linear-gradient-9);
      }

      .cls-44 {
        fill: #d0e4a6;
      }

      .cls-45 {
        fill: #6b4f3f;
      }

      .cls-46 {
        fill: url(#linear-gradient-3);
      }

      .cls-47 {
        fill: #a9e3f7;
      }

      .cls-48 {
        fill: url(#linear-gradient);
      }

      .cls-49 {
        fill: #c19374;
      }

      .cls-50 {
        fill: #603f1e;
      }

      .cls-51 {
        fill: url(#linear-gradient-19);
      }

      .cls-52 {
        fill: url(#linear-gradient-4);
      }

      .cls-53 {
        fill: #e5b798;
      }

      .cls-54 {
        fill: #0abbb6;
      }

      .cls-55 {
        fill: #f1e3c5;
      }

      .cls-56 {
        fill: url(#linear-gradient-8);
      }

      .cls-57 {
        fill: #b59364;
      }

      .cls-58 {
        fill: url(#linear-gradient-12);
      }

      .cls-59 {
        fill: url(#linear-gradient-13);
      }
    </style>
    <linearGradient id="linear-gradient" x1="463.28" y1="-344.98" x2="470.86" y2="-352.56" gradientTransform="translate(316.77 810.74) rotate(-48.43)" gradientUnits="userSpaceOnUse">
      <stop offset=".28" stop-color="#936f57"/>
      <stop offset=".84" stop-color="#d6aa87"/>
    </linearGradient>
    <linearGradient id="linear-gradient-2" x1="847.24" y1="-288.97" x2="850.89" y2="-292.62" gradientTransform="translate(720.06 1022.66) rotate(-143.35) scale(1 -1)" gradientUnits="userSpaceOnUse">
      <stop offset=".28" stop-color="#936f57"/>
      <stop offset=".84" stop-color="#efceb9"/>
    </linearGradient>
    <linearGradient id="linear-gradient-3" x1="-71.72" y1="-943.96" x2="-67.95" y2="-947.73" gradientTransform="translate(919.86 1022.66) rotate(-36.65)" xlink:href="#linear-gradient"/>
    <linearGradient id="linear-gradient-4" x1="468.45" y1="-91.91" x2="472.16" y2="-95.61" gradientTransform="translate(468.19 796.43) rotate(-138.39) scale(1.35 -1.44)" xlink:href="#linear-gradient"/>
    <linearGradient id="linear-gradient-5" x1="764.66" y1="258.5" x2="769.82" y2="253.34" gradientTransform="translate(-518.53 714.99) rotate(-44.68) scale(1.35 1.44)" gradientUnits="userSpaceOnUse">
      <stop offset=".12" stop-color="#936f57"/>
      <stop offset=".73" stop-color="#e0b79b"/>
    </linearGradient>
    <linearGradient id="linear-gradient-6" x1="216.04" y1="317.2" x2="219.07" y2="314.17" gradientTransform="translate(-84.86 134.16) rotate(-31.28) scale(1.35 1.44)" xlink:href="#linear-gradient"/>
    <linearGradient id="linear-gradient-7" x1="304.58" y1="32.96" x2="311.58" y2="25.96" gradientTransform="translate(218.55 561.07) rotate(-40.64)" xlink:href="#linear-gradient"/>
    <linearGradient id="linear-gradient-8" x1="649.41" y1="396.06" x2="652.45" y2="393.03" gradientTransform="translate(-480.7 795.46) rotate(-50.85) scale(1.35 1.44)" xlink:href="#linear-gradient"/>
    <linearGradient id="linear-gradient-9" x1="373.92" y1="-461.9" x2="380.84" y2="-468.82" gradientTransform="translate(442.16 1022.11) rotate(-49.17)" xlink:href="#linear-gradient"/>
    <linearGradient id="linear-gradient-10" x1="289.66" y1="-35.63" x2="297.35" y2="-43.32" gradientTransform="translate(227.36 755.33) rotate(-38.65)" xlink:href="#linear-gradient"/>
    <linearGradient id="linear-gradient-11" x1="414.04" y1="-108.86" x2="417.52" y2="-112.34" gradientTransform="translate(403.81 986.53) rotate(-56.83)" xlink:href="#linear-gradient"/>
    <linearGradient id="linear-gradient-12" x1="734.23" y1="153.27" x2="742.91" y2="144.59" gradientTransform="translate(645.54 810.74) rotate(-131.57) scale(1 -1)" gradientUnits="userSpaceOnUse">
      <stop offset=".28" stop-color="#5a3d1c"/>
      <stop offset=".84" stop-color="#936f57"/>
    </linearGradient>
    <linearGradient id="linear-gradient-13" x1="1571.06" y1="1200.53" x2="1576.71" y2="1194.87" gradientTransform="translate(2880.99 324.77) rotate(-142.26) scale(1.35 -1.44)" xlink:href="#linear-gradient"/>
    <linearGradient id="linear-gradient-14" x1="537.32" y1="234.8" x2="540.48" y2="231.64" gradientTransform="translate(-498.21 795.46) rotate(-50.85) scale(1.35 1.44)" gradientUnits="userSpaceOnUse">
      <stop offset=".28" stop-color="#936f57"/>
      <stop offset=".84" stop-color="#eabea0"/>
    </linearGradient>
    <linearGradient id="linear-gradient-15" x1="0" y1="322.64" x2="6.92" y2="315.72" gradientTransform="translate(136.42 234.94) rotate(-23.46)" xlink:href="#linear-gradient"/>
    <linearGradient id="linear-gradient-16" x1="-156.03" y1="449.62" x2="-150.04" y2="443.64" gradientTransform="translate(165.98 175.95) rotate(-41.87)" xlink:href="#linear-gradient"/>
    <linearGradient id="linear-gradient-17" x1="451.54" y1="186.49" x2="454.42" y2="183.61" gradientTransform="translate(-498.21 795.46) rotate(-50.85) scale(1.35 1.44)" gradientUnits="userSpaceOnUse">
      <stop offset=".28" stop-color="#72401a"/>
      <stop offset=".84" stop-color="#936f57"/>
    </linearGradient>
    <linearGradient id="linear-gradient-18" x1="169.01" y1="434.89" x2="172.24" y2="431.66" gradientTransform="translate(-496.35 134.16) rotate(-31.28) scale(1.35 1.44)" xlink:href="#linear-gradient"/>
    <linearGradient id="linear-gradient-19" x1="432.3" y1="255.82" x2="435.23" y2="252.88" gradientTransform="translate(-498.21 795.46) rotate(-50.85) scale(1.35 1.44)" xlink:href="#linear-gradient"/>
    <linearGradient id="linear-gradient-20" x1="203.54" y1="-342" x2="207.08" y2="-345.54" gradientTransform="translate(271.94 1022.66) rotate(-36.65)" xlink:href="#linear-gradient"/>
    <linearGradient id="linear-gradient-21" x1="77.12" y1="-412.27" x2="80.98" y2="-416.13" gradientTransform="translate(271.94 1022.66) rotate(-36.65)" xlink:href="#linear-gradient"/>
  </defs>
  <g class="cls-17">
    <g id="Layer_1" data-name="Layer 1">
      <rect class="cls-47" width="580" height="580"/>
    </g>
    <g id="Layer_2" data-name="Layer 2">
      <rect class="cls-4" x="415.5" y="358.18" width="151.91" height="93.9"/>
      <rect class="cls-2" x="332.1" y="338.21" width="70.79" height="77.5"/>
      <rect class="cls-24" y="538.8" width="27" height="111.87"/>
      <path class="cls-36" d="m443.81,119.63s0,.06,0,.09c.02,0,.02-.04,0-.09Z"/>
      <g>
        <path class="cls-37" d="m402.92,279.14c-17.41-8.33-12.11-53.74-12.11-53.74h-51.47s6.81,47.68-10.6,56.01c-17.41,8.33-52.65,24.98-52.98,56.77-.43,41.16,170.91,28.48,170.91-4.51s-26.34-46.2-43.75-54.53Z"/>
        <g>
          <g>
            <path class="cls-26" d="m368.95,136.85c.31,4.44-7.24,17.73-7.24,17.73,0,0-9.36-12.09-9.68-16.53-.31-4.43,3.22-8.3,7.89-8.63,4.67-.33,8.71,3,9.03,7.43Z"/>
            <path class="cls-2" d="m373.13,157.17c-.76-10.74-6.08-14.76-12.25-14.32-6.18.44-10.88,5.16-10.12,15.9,0,.04,22.37-1.55,22.37-1.59Z"/>
          </g>
          <path class="cls-26" d="m405.86,187.74c1.65,23.25-15.91,43.43-39.22,45.08-23.31,1.66-43.55-15.85-45.2-39.1-1.65-23.25,15.91-43.43,39.22-45.08,23.31-1.66,43.55,15.85,45.19,39.1Z"/>
          <path class="cls-12" d="m344.68,251.01s6.46,22.25,21.38,22.1c14.92-.14,23.26-17.96,23.42-24.37.15-6.41-44.8,2.26-44.8,2.26Z"/>
          <path class="cls-26" d="m353.34,217.68c.29,4.08-2.79,7.63-6.87,7.93l-2.08.15c-4.09.29-8.7-.23-8.98-4.32,0,0-6.72-7.41-7.77-22.17-.45-6.33.55-9.95,4.64-10.24l11.54-.82c4.09-.29,7.63,2.79,7.92,6.87l1.6,22.6Z"/>
          <path class="cls-26" d="m377.97,215.93c.29,4.09,3.84,7.17,7.92,6.88l2.09-.15c4.08-.29,8.57-1.46,8.28-5.54,0,0,5.6-8.29,4.56-23.04-.45-6.33-1.95-9.77-6.04-9.49l-11.54.82c-4.08.29-7.16,3.84-6.87,7.93l1.6,22.6Z"/>
          <path class="cls-49" d="m330.14,213.93c1.49,4.35,5.16,7.03,8.19,5.99,3.03-1.04,4.28-5.41,2.78-9.76-1.49-4.35-5.16-7.03-8.19-5.99-3.03,1.04-4.28,5.41-2.78,9.76Z"/>
          <path class="cls-49" d="m400.01,211.71c-1.08,4.47-4.48,7.48-7.6,6.73-3.11-.75-4.76-4.99-3.68-9.45,1.08-4.47,4.48-7.48,7.6-6.73,3.11.75,4.76,4.99,3.68,9.46Z"/>
          <path class="cls-23" d="m395.47,202.88c1.18,25.26-7.47,52.64-27.69,53.58-17.38.81-32.6-23.37-34.39-48.59-2.42-34.13,12.65-38.62,30.26-39.87,28.48-2.02,30.64,9.61,31.82,34.87Z"/>
          <path class="cls-26" d="m361.24,149.73h-.01s-.04,0-.06,0c-.02,0-.04,0-.06,0h0s0,.01-.02.01c-20.4,2.16-38.71,19.25-34.34,38.31.64,2.92,4.92,6.31,6.5,8.46.74-4.62,3.32-8.49,7.81-10.37,7.11-2.41,14.8,2.12,22.75,1.7h0s.04,0,.07,0c.02,0,.04,0,.06,0h0c7.92-.71,14.9-6.28,22.28-4.9,4.71,1.23,8.21,3.71,8.68,10.46,1.27-2.35,5.53-7.61,5.75-10.59,1.63-19.49-18.89-33.81-39.4-33.08Z"/>
          <path class="cls-37" d="m367.13,246.22c6.17-.29,9.88-6.66,8.75-9.41-5.81,3.08-11.35,5.68-18.29,3.13-.87,2.84,3.37,6.57,9.54,6.28"/>
          <g>
            <path class="cls-33" d="m351.88,212.47c.08,1.67-.87,3.07-2.13,3.13-1.25.06-2.33-1.25-2.41-2.92-.08-1.67.87-3.07,2.12-3.13,1.25-.06,2.33,1.25,2.41,2.92Z"/>
            <path class="cls-33" d="m350,202.48c6.28.6,10.29,5.37,9.25,7.39-5.88-3.48-11.84-4.33-18.42.7-.99-2.98,2.89-8.63,9.18-8.1"/>
          </g>
          <g>
            <path class="cls-33" d="m378.23,210.6c.16,1.66,1.3,2.92,2.55,2.79,1.25-.12,2.13-1.56,1.97-3.23-.16-1.66-1.3-2.91-2.55-2.8-1.25.12-2.13,1.56-1.97,3.23Z"/>
            <path class="cls-33" d="m378.68,200.45c-6.13,1.48-9.43,6.77-8.11,8.62,5.33-4.27,11.11-5.95,18.33-1.9.56-3.09-4.08-8.13-10.23-6.72"/>
          </g>
          <path class="cls-26" d="m395.28,198.74c-.58,18.26-3.76,23.07-6.39,26.25-2.62,3.2-12.09,7.81-22.66,2.5-.05-.03-.11-.04-.16-.07h0s0,0-.01,0c0,0,0,0-.01,0h0s-.1.07-.15.1c-9.71,6.75-19.74,3.52-22.79.72-3.05-2.78-6.81-7.1-9.96-25.1-2.85,38.78,12.95,63.18,35.36,61.17.06,0,.11,0,.17-.01.05,0,.11,0,.16-.01,22.47-1.17,34.74-27.56,26.45-65.55Zm-27.54,52.4c-5.2.48-10.77-3.34-11.38-11.91-.12-1.69,5.09-2.89,10.3-3.25,5.21-.39,10.54.07,10.66,1.76.61,8.56-4.36,13.13-9.58,13.39Z"/>
          <path class="cls-48" d="m373.98,224.02s-3.88,10.97-7.85,11.21c-3.97.24-9.13-10.2-9.13-10.2l16.98-1.02Z"/>
        </g>
      </g>
      <g>
        <path class="cls-40" d="m249.56,240.51s2.7,23.25,10.01,34.76c7.31,11.5,37.03,38.23,33.56,80.42-25.65,3.12-54.77-9.47-54.77-9.47l1.74-118.08,9.47,12.37Z"/>
        <path class="cls-40" d="m249.85,246.07c0,26.75-18.64,48.43-41.64,48.43s-41.64-21.68-41.64-48.43,18.64-48.43,41.64-48.43,41.64,21.68,41.64,48.43Z"/>
        <path class="cls-40" d="m199.47,199.47c-22.96,0-49.26,46.67-37.68,80.5,11.58,33.83,5.18,48.78-13.75,56.3-45.51,18.06-17.94,64.99,12.53,68.04,30.48,3.05,137.75-.91,132.26-45.71-5.48-44.8-9.75-51.5-23.77-67.66-14.02-16.15-17.05-29.86-19.21-41.61-7.05-38.38-15.81-49.86-50.39-49.86Z"/>
        <path class="cls-5" d="m180.79,330.12c29.64-12.82,12.38-54.95,12.38-54.95l46.03-.69s-14.6,45.61,17.44,57.96c18.41,7.1,54.18,25.54,54.18,58.05,0,29.8-188.08,31.34-188.08,1.55,0-32.51,39.94-54.09,58.05-61.92Z"/>
        <path class="cls-23" d="m180.22,275.4c1.96,4.27,5.97,6.62,8.95,5.26,2.98-1.37,3.8-5.94,1.83-10.21-1.96-4.27-5.97-6.63-8.95-5.26-2.98,1.37-3.8,5.94-1.83,10.21Z"/>
        <path class="cls-12" d="m239.25,276.97s-7.88,36.64-18.14,38.65c-14.08,2.76-27.16-21.49-28.57-27.9-1.42-6.4,46.71-10.76,46.71-10.76Z"/>
        <path class="cls-28" d="m179.34,257.61c3.79,25.58,25.24,54.59,39.53,51.79,10.77-2.11,26.91-33.33,23.75-59-4.29-34.72-20.29-36.26-38.21-34.05-28.98,3.58-28.85,15.68-25.07,41.26Z"/>
        <g>
          <path class="cls-12" d="m208,280.59s3.13,6.29,5.02,6.02c1.9-.28,3.08-7.17,3.08-7.17l-8.1,1.15Z"/>
          <path class="cls-1" d="m208,280.59s2.91,4.79,4.8,4.52c1.9-.28,3.3-5.71,3.3-5.71l-8.11,1.19Z"/>
        </g>
        <path class="cls-33" d="m223.43,262.27c.4,1.66,1.73,2.77,2.98,2.47,1.24-.3,1.94-1.89,1.54-3.55-.4-1.66-1.73-2.77-2.97-2.47-1.25.3-1.94,1.89-1.54,3.55Z"/>
        <path class="cls-33" d="m197.62,268.46c.55,1.62.01,3.26-1.21,3.68-1.21.41-2.64-.57-3.19-2.18-.55-1.62,0-3.27,1.2-3.68,1.21-.41,2.64.57,3.19,2.19Z"/>
        <path class="cls-37" d="m215.64,294.6c-3.99.95-9.7-1.73-11.75-3.23.14.07.29.14.44.2,2.12.96,5.92,1.66,11.19.26,4.52-1.21,6.75-3.33,7.69-4.5-.88,1.58-3.83,6.38-7.57,7.26Z"/>
        <path class="cls-40" d="m181.07,265.8s4.54-4.04,18.14-4.04c23.43,0,26.51-20.16,44.81-20.16,7.51,0-8.91-27.66-17.81-29.3-8.91-1.64-45-2.58-48.52,14.53-3.51,17.11,3.39,38.97,3.39,38.97Z"/>
        <path class="cls-40" d="m228.23,238.89s15.95,21.37,10.21,39.87-17.54,51.67,1.91,80.06c19.46,28.39,40.36,23.52,40.36,23.52,0,0-32.62,1.21-3.01-33.7,9.8-11.55-30.01-92.84-33.52-105.6-3.51-12.76-14.35-15.31-14.35-15.31l-1.59,11.16Z"/>
      </g>
      <g>
        <path class="cls-4" d="m345.52,264.76c0,26.73-19.74,48.39-44.09,48.39s-44.09-21.66-44.09-48.39,19.74-48.39,44.09-48.39,44.09,21.67,44.09,48.39Z"/>
        <g>
          <path class="cls-49" d="m257.63,349.11c30.57-13.22,12.77-56.67,12.77-56.67l52.3.06s-19.89,46.26,13.15,59c18.99,7.32,55.87,26.34,55.87,59.86,0,30.72-193.95,32.32-193.95,1.59,0-33.52,41.18-55.78,59.86-63.85Z"/>
          <g>
            <path class="cls-12" d="m271.6,298.26s8.13,37.79,18.7,39.86c14.53,2.85,28.01-22.16,29.47-28.77,1.46-6.6-48.17-11.09-48.17-11.09Z"/>
            <path class="cls-49" d="m261.98,276.16c.66,4.8,3.92,8.32,7.26,7.86,3.35-.46,5.52-4.73,4.86-9.54-.66-4.8-3.92-8.32-7.27-7.86-3.34.46-5.52,4.73-4.86,9.54Z"/>
            <path class="cls-23" d="m333.38,278.29c-3.91,26.38-26.03,56.3-40.77,53.41-11.1-2.18-27.75-34.37-24.49-60.84,4.42-35.81,20.92-37.4,39.41-35.11,29.88,3.69,29.75,16.17,25.85,42.55Z"/>
          </g>
          <g>
            <path class="cls-12" d="m303.82,303.47s-3.22,6.49-5.18,6.2c-1.95-.29-3.17-7.39-3.17-7.39l8.35,1.19Z"/>
            <path class="cls-46" d="m303.82,303.47s-3,4.94-4.96,4.66c-1.95-.29-3.41-5.89-3.41-5.89l8.36,1.23Z"/>
          </g>
          <path class="cls-33" d="m288.26,285.72c-.41,1.71-1.78,2.86-3.07,2.55-1.28-.3-1.99-1.95-1.58-3.66.41-1.71,1.79-2.86,3.07-2.55,1.29.31,2,1.95,1.59,3.66Z"/>
          <path class="cls-33" d="m314.41,290.43c-.56,1.66-.01,3.36,1.24,3.79,1.25.42,2.72-.58,3.29-2.25.56-1.67,0-3.37-1.24-3.79-1.25-.42-2.73.58-3.29,2.26Z"/>
          <g>
            <path class="cls-37" d="m311.79,312.94c-6.25,2.27-21.59-2.97-27.62-6.32,1.37,1.6,4.57,5.32,11.22,7.82,7.79,2.78,13.36.39,16.4-1.5Z"/>
            <g>
              <path class="cls-55" d="m295.2,319.23c5.96,2.23,14.32-4.07,17.23-6.7-.21.14-.42.28-.64.41-3.04,1.89-8.61,4.28-16.4,1.5-6.65-2.5-9.84-6.22-11.22-7.81,1.31,2.02,5.49,10.45,11.03,12.6Z"/>
              <path class="cls-37" d="m295.2,319.23c-5.54-2.15-9.72-10.58-11.03-12.6,0,0,0,0,0,0,0,0,0,0-.01,0,6.79,22.16,20.31,19.23,28.32,5.89-.02,0-.04.02-.05.03-2.91,2.63-11.27,8.92-17.23,6.7Z"/>
            </g>
          </g>
        </g>
        <path class="cls-18" d="m390.18,399.82c-1.08-3.96-2.68-7.68-4.68-11.15-2.05-3.55-4.5-6.85-7.25-9.9-2.88-3.2-6.06-6.15-9.41-8.83-3.41-2.73-6.97-5.2-10.54-7.4-14.26,4.7-29.68,8.02-45.92,9.59-29.58,2.87-57.65-.39-81.59-8.31-3.36,2.3-6.7,4.82-9.9,7.54-3.23,2.74-6.31,5.68-9.11,8.83-2.69,3.03-5.12,6.25-7.17,9.64-2.06,3.41-3.74,7-4.92,10.77-1.23,3.93-1.92,8.05-1.92,12.36,0,129.03,193.95,127.43,193.95-1.59,0-4.07-.56-7.91-1.55-11.55Z"/>
        <path class="cls-4" d="m322.5,233.29c-44.15-32.06-61.45,33.92-59.28,34.91,7.04,3.23,14.97,2.85,21.96.65,6.95-2.18,14.85-6.11,22.84-4.34,3.48.77,7.79,2.34,10.32,4.61,2.41,2.15,3.92,4.95,5.2,7.59,1.95,4.05,3.45,8.28,4.53,12.51-.17-5.53-1.15-11.18-2.85-16.6-1.94-6.24-5.53-13.95-12.58-17.6,13.89.08,18.71,21.08,19.24,30.46,4.43-6.41,10.67-37.62-9.39-52.19Z"/>
      </g>
      <g>
        <path class="cls-33" d="m117.29,246.12s3.62,29.82,23.7,39.87c53.95,26.97,66.97,83.52-10.22,96.72-77.19,13.2-44.77-129.99-44.77-129.99l31.28-6.6Z"/>
        <path class="cls-10" d="m117.38,338.86c-19.8-9.47-12.34-68.01-12.34-68.01h-44.19s6.89,51.65-12.91,61.12c-8.84,4.23-23.93,11.2-37.94,20.84v66.47c58.95,11.84,176.13,4.64,176.13-20.17s-48.96-50.79-68.76-60.26Z"/>
        <path class="cls-10" d="m146.19,354.55c-16.35,18.6-38.51,30.05-62.93,30.05-26.77,0-36.31-40.39-52.96-62.24-1.93,1.21-30.29,19.82-30.29,19.82v77.89c58.92,11.83,186.13,57.02,186.13-20.96,0-15.87-20.23-32.31-39.95-44.56Z"/>
        <g>
          <g>
            <path class="cls-33" d="m38.85,233.58c0,24.69,19.79,44.71,44.21,44.71s44.21-20.02,44.21-44.71-19.8-44.71-44.21-44.71-44.21,20.02-44.21,44.71Z"/>
            <g>
              <g>
                <path class="cls-12" d="m108.43,277.61s-11.38,31.54-21.06,32.76c-11.96,1.51-26.4-21.58-27.49-28.79-1.09-7.21,48.55-3.97,48.55-3.97Z"/>
                <path class="cls-23" d="m48.3,248.4c2.27,28.67,22.9,58.55,37.49,56.71,11.5-1.45,30.81-29.08,29.23-57.8-2.14-38.85-17.14-43.71-37.19-42.6-32.43,1.79-31.8,15.02-29.53,43.7Z"/>
                <path class="cls-3" d="m84.64,290.57c-5.25.79-9.67-5.81-9.2-7.63,5.46,3.55,11.05,4.88,15.29-.95,1.1,1.67-.86,7.66-6.09,8.59"/>
              </g>
              <g>
                <path class="cls-12" d="m77.63,271.62s3.33,9.15,6.02,8.9c2.7-.24,5.49-9.9,5.49-9.9l-11.51,1Z"/>
                <path class="cls-52" d="m77.63,271.62s3.27,7.01,5.97,6.77c2.69-.25,5.56-7.82,5.56-7.82l-11.52,1.05Z"/>
              </g>
              <path class="cls-33" d="m96.54,253.28c.14,1.73,1.3,3.05,2.6,2.95,1.3-.1,2.24-1.59,2.1-3.32-.14-1.73-1.3-3.06-2.6-2.95-1.3.1-2.24,1.59-2.11,3.33Z"/>
              <path class="cls-33" d="m65.63,253.28c.14,1.73,1.3,3.05,2.61,2.95,1.3-.1,2.24-1.59,2.1-3.32-.14-1.73-1.3-3.06-2.6-2.95-1.3.1-2.24,1.59-2.11,3.33Z"/>
            </g>
          </g>
          <path class="cls-55" d="m46.99,249.62c0,.06,0,.12,0,.18.04.34.24.62.52.75,0,0,.02.01.04.02.58.27,1.6,1.43,2.63,7.1.46,2.83,1.02,8.79,5.74,10.62,2.14.82,12.53,2.51,17.86-2.71,1.12-1.1,2.34-3.52,3.37-5.99.6-1.68,2.21-6.52,2.46-7.25.36-1.3,1.1-2.11,2.31-2.1h.51c1.21,0,1.95.81,2.3,2.11.24.75,1.82,5.59,2.41,7.27,1.01,2.48,2.21,4.91,3.32,6.02,5.29,5.25,15.69,3.64,17.84,2.84,4.73-1.8,5.33-7.75,5.81-10.58,1.06-5.67,2.08-6.82,2.67-7.09.02-.01.03-.01.04-.02.29-.14.49-.42.53-.75,0-.06,0-.12,0-.18.04-1.19-.06-3.27-.09-3.76,0-.04,0-.06,0-.08-.02-.1-.08-.18-.16-.22h0s-.03-.02-.04-.02c-2.93-1.41-15.28-2.25-21.95-1.39-6.72.87-10.71,3.02-12.93,3.08-2.22-.08-6.2-2.26-12.91-3.17-6.66-.9-19.01-.15-21.95,1.24-.01,0-.02.01-.04.02h0c-.08.04-.15.12-.17.22,0,.02,0,.04,0,.08-.03.48-.14,2.56-.11,3.75Zm41.07.68c.81-3.04,4.35-3.54,6.34-4.03,4.07-.86,10.42-1.01,14.48.64,1.81.73,3.17,2.49,3.7,4.91.64,3.34-.32,6.76-.98,10.09-.54,2.41-2.57,4.81-5.3,5.3-4.09.73-7,.69-11.11-.77-1.45-.52-3.56-1.9-4.98-5.37-1.37-2.9-3.02-7.48-2.15-10.76Zm-36.35,1.31c.54-2.41,1.92-4.17,3.73-4.89,4.07-1.61,10.42-1.43,14.48-.54,1.99.5,5.52,1.03,6.31,4.08.86,3.29-.82,7.85-2.22,10.74-1.43,3.47-3.56,4.83-5.01,5.34-4.12,1.44-7.03,1.46-11.11.7-2.73-.51-4.74-2.93-5.27-5.34-.64-3.34-1.58-6.76-.91-10.09Z"/>
          <path class="cls-33" d="m61.84,226.77s3.42,10.92,25.25,16.72c-15.35-9.21-19.45-15.02-19.11-20.82,8.19,9.9,13.98,18.43,34.47,24.23-8.87-9.9-10.93-15.36-10.93-17.75,10.24,13.31,17.39,17.53,17.39,17.53,0,0,2.23-10.36,5.13-13.44,6.58-6.98-1.87-29.49-1.87-29.49l-38.39-1.91-27.52,10.16.92,18.96,3.73,18.32s8.19-8.53,10.92-22.52Z"/>
        </g>
      </g>
      <path d="m43.57,359.09l-.02-.02c-.01.14-.03.28-.04.41.03-.16.05-.29.06-.39Z"/>
      <g>
        <path class="cls-23" d="m457.28,244.83c.87,5.52,2,14.43,2,23.63,0,18.66-4.56,30.3-13.55,34.6l-4.22,1.99c-20.04,9.38-54.14,26.82-54.14,54.79,0,1.53,1.73,3.38,4.88,5.19,13.3,7.68,44.61,12.45,84.69,12.16,40.08-.29,71.61-5.56,85.24-13.43,3.32-1.92,5.22-3.92,5.22-5.51,0-28.14-31.79-44.56-50.56-53.38l-3.82-1.81c-17.01-8.14-19.29-42.38-19.41-58.23h-36.33Z"/>
        <path class="cls-4" d="m523.55,308.11c-2.35-1.18-4.61-2.26-6.7-3.24l-3.82-1.81c-9.58-4.58-7.81-26.61-11.13-30.61-2.88-3.14-17.25-1.38-26.63-1.38s-23.46.09-26.7,1.38c-3.91,1.81-3.62,30.22-7.55,32.22-2.8,1.42-5.78,2.94-8.84,4.56-20.48,10.81-44.79,26.27-44.79,50.6,0,1.53,1.73,3.38,4.88,5.19,13.3,7.68,46.29,29.62,86.37,29.33,40.08-.29,69.94-22.73,83.57-30.6,3.32-1.92,5.22-3.92,5.22-5.51,0-25.01-25.09-40.75-43.86-50.14Z"/>
        <g>
          <path class="cls-19" d="m516.43,212.32c0,23.66-17.47,42.83-39.03,42.83s-39.02-19.17-39.02-42.83,17.47-42.83,39.02-42.83,39.03,19.17,39.03,42.83Z"/>
          <g>
            <path class="cls-23" d="m505.72,226.7s4.87-5.98,7.24-3.11c2.37,2.88-4.9,34-10.04,17.75-5.13-16.25,2.79-14.64,2.79-14.64Z"/>
            <path class="cls-23" d="m450.12,227.23s-4.87-5.98-7.25-3.11c-2.37,2.88,4.9,34,10.04,17.75,5.13-16.25-2.79-14.64-2.79-14.64Z"/>
            <g>
              <path class="cls-12" d="m455.39,252.02s8.12,29.14,17.03,30.26c11.02,1.39,23.41-20.41,24.41-27.06,1-6.64-41.44-3.2-41.44-3.2Z"/>
              <path class="cls-42" d="m508.42,226.56c-2.1,26.42-20.98,48.65-34.42,46.95-10.6-1.34-28.5-21.5-27.05-47.95,1.97-35.8,15.79-40.27,34.27-39.25,29.88,1.64,29.3,13.84,27.2,40.26Z"/>
            </g>
            <path class="cls-37" d="m463.18,256.25c6.79,11.02,20.11,7.67,24.44,1.58-3.29,1.47-18.76.38-24.44-1.58Z"/>
          </g>
          <g>
            <path class="cls-12" d="m480.71,246.31s-2.96,9.74-5.24,9.66c-2.27-.08-5.88-10.67-5.88-10.67l11.12,1.02Z"/>
            <path class="cls-35" d="m481.72,244.12s-4.02,10-6.29,9.92c-2.27-.09-6.61-10.28-6.61-10.28l12.9.36Z"/>
          </g>
          <path class="cls-33" d="m463.94,229.71c0,1.22-.99,2.21-2.21,2.21s-2.21-.99-2.21-2.21.99-2.21,2.21-2.21,2.21.99,2.21,2.21Z"/>
          <path class="cls-33" d="m494.2,229.71c0,1.22-.99,2.21-2.21,2.21s-2.21-.99-2.21-2.21.99-2.21,2.21-2.21,2.21.99,2.21,2.21Z"/>
          <path class="cls-11" d="m505.12,225.31l-.63-2.51-2.8,1.99c-2.04-3.18-5.59-5.31-9.65-5.31-5.03,0-9.31,3.27-10.84,7.79h-7.9c-1.53-4.52-5.81-7.79-10.84-7.79-4.48,0-8.36,2.6-10.24,6.36l-2.77-1.97-.63,2.51,2.42,2.29c-.15.73-.23,1.49-.23,2.26,0,6.32,5.14,11.45,11.45,11.45s11.45-5.14,11.45-11.45c0-.18-.02-.36-.03-.55h6.73c0,.18-.03.36-.03.55,0,6.32,5.14,11.45,11.45,11.45s11.45-5.14,11.45-11.45c0-1.24-.2-2.43-.57-3.55l2.19-2.08Zm-42.65,13.46c-4.32,0-7.84-3.51-7.84-7.84s3.52-7.84,7.84-7.84,7.84,3.52,7.84,7.84-3.52,7.84-7.84,7.84Zm29.58,0c-4.32,0-7.84-3.51-7.84-7.84s3.51-7.84,7.84-7.84,7.84,3.52,7.84,7.84-3.52,7.84-7.84,7.84Z"/>
          <path class="cls-19" d="m502.62,188.14c-4.6-5.47-14.28-9.24-25.52-9.24s-20.97,3.8-25.55,9.28c-1.5,1.27-7.88,7.32-7.69,18.9.12,6.92,2.48,27.96,3.89,31.3,1.41-6.57,1.51-22.84,6.5-27.92,3.28,2.56,13.62,9.38,27.6,6.11-7.59-.75-11.58-3.68-12.85-5.5,1.16.15,2.2.24,3.1.26,1.63.17,3.29.27,5,.27s3.37-.1,5-.27c2.82-.06,6.91-.72,12.71-2.22,10.56-2.72,9.54,21.78,11.32,30.07,3.36-5.14,4.12-25.19,4.23-32.11.19-11.72-6.33-17.78-7.73-18.94Z"/>
        </g>
      </g>
      <g>
        <path class="cls-13" d="m438.09,414.48c-18.72-8.96-12.21-49.8-12.21-49.8h-41.79s-2.29,26.03-21.01,34.98c-18.72,8.95-39.93,48.25-39.93,71.58,0,31.34,182.07,39.7,182.07,8.36,0-34.19-48.41-56.17-67.13-65.12Z"/>
        <g>
          <path class="cls-12" d="m377.3,370.98s19,32.24,28.23,32.24c11.4,0,21.95-23.24,22.11-30.14.17-6.9-50.34-2.1-50.34-2.1Z"/>
          <path class="cls-49" d="m442.12,349.96c-1.16,4.8-4.82,8.04-8.17,7.23-3.35-.81-5.12-5.36-3.96-10.17,1.16-4.81,4.82-8.04,8.17-7.24,3.35.81,5.12,5.37,3.96,10.17Z"/>
          <path class="cls-23" d="m436.16,340.46c1.27,27.17-15.87,57.63-29.78,57.63-10.96,0-35.07-25.13-36.99-52.26-2.61-36.7,13.6-41.53,32.55-42.88,30.64-2.17,32.95,10.34,34.22,37.51Z"/>
          <path class="cls-37" d="m406.16,385.95c6.87-.78,10.2-10.59,8.99-12.72-5.67,6.31-12.25,9.88-19.57,3.98-.81,2.47,3.68,9.35,10.58,8.75"/>
        </g>
        <g>
          <path class="cls-12" d="m406.43,367.63s-4.03,6.89-6.16,6.29c-2.14-.59-2.97-8.79-2.97-8.79l9.13,2.5Z"/>
          <path class="cls-16" d="m406.43,367.63s-3.67,5.17-5.8,4.58c-2.14-.6-3.34-7.12-3.34-7.12l9.14,2.54Z"/>
        </g>
        <path class="cls-33" d="m388.4,349.14c.08,1.79-.94,3.3-2.29,3.37-1.35.06-2.51-1.34-2.59-3.14-.08-1.79.94-3.3,2.29-3.37,1.35-.06,2.51,1.34,2.59,3.14Z"/>
        <path class="cls-33" d="m417.18,349.14c-.08,1.79.94,3.3,2.29,3.37,1.35.06,2.51-1.34,2.59-3.14.08-1.79-.94-3.3-2.29-3.37-1.35-.06-2.51,1.34-2.59,3.14Z"/>
        <g>
          <path class="cls-23" d="m401.94,302.95c-11.82.84-22.57,3.03-28.36,13.48l51.58-10.17c-4.96-2.97-12.28-4.08-23.22-3.3Z"/>
          <path class="cls-12" d="m421,330.49c5.99-5.46,8.02-14.5,8.75-20.15-1.26-1.65-2.72-2.97-4.59-4.09l-51.58,10.17c-1.11,2-2.03,4.3-2.74,6.95-.19,8.82-.11,25.13,2.38,39.08.36.93.73,1.85,1.12,2.75,3.61-11.52,37.79-26.62,46.65-34.71Z"/>
          <path class="cls-20" d="m455.17,298.67c7.09-1.11,11.84-1.88,16.18-3.69-10.28-.09-22.65-2.08-22.44-1.95-.2-.07,10.49-2.81,16.18-9.09-16.75,4.79-36.13,1.52-35.24,1.54,0,0,.02-.06.06-.1,2.4-1.7,4.6-3.79,11.55-8.5-10.82,5.17-30.53-15.45-59.14-6.05-26.1,8.58-39.13,29.01-33.54,45.88,5.21,15.74,21.96,18,22.88,51.28,10.46-33.11,36.9-22.63,57.98-56.83,6.91,12.91,1.58,35.51.16,36.75,3.12-1.95,22.4-19.75,17.92-41.07-1.22-5.83,5.41-7.66,7.44-8.16Z"/>
        </g>
      </g>
      <g>
        <path class="cls-44" d="m548.78,464.75c-6-4.1-12.27-7.69-18.21-10.79-6.04-3.16-11.74-5.82-16.44-8.02-1.57-.74-3.04-1.42-4.36-2.05-19.66-9.4-9.1-60.6-8.54-63.3h-50.46c.04,1.19.37,11.9-.97,24.28-1.69,15.57-6.04,33.79-16.99,39.02-2.42,1.16-5.23,2.46-8.3,3.91-2.41,1.14-5,2.41-7.66,3.76-10.4,5.26-22.2,12.07-31.64,20.92-10.06,9.42-17.4,21.11-17.4,35.57,0,4.6,4.15,8.58,11.24,11.96,8.33,3.96,20.72,7.07,35.37,9.3,7.56,1.16,6.87,27.78,15.85,28.56,7.19.62,20.8-24.9,28.35-24.61,6.26.23,12.6.36,18.91.36,1.14,0,2.27,0,3.41-.02,7.59-.05,15.12-.28,22.44-.67,13.4-.72,26.11-2.02,37.14-3.9,22.83-3.9,3.85-22.77,3.85-31.75,0-19.15,20.56-21.46,4.41-32.51Z"/>
        <g>
          <path class="cls-12" d="m448.53,397.08s8.2,30.68,21.02,30.68c21.05,0,28.28-24.82,29.36-31.98,1.08-7.17-50.38,1.31-50.38,1.31Z"/>
          <g>
            <path class="cls-50" d="m455.17,352.3c-.54,7.13-6.33,12.49-12.92,11.99-6.6-.5-11.5-6.69-10.96-13.81.55-7.12,6.33-12.49,12.92-11.99,6.59.5,11.5,6.69,10.96,13.81Z"/>
            <path class="cls-49" d="m432.33,361.03c1.07,5.08,4.82,8.6,8.36,7.85,3.54-.75,5.55-5.48,4.47-10.56-1.07-5.08-4.82-8.6-8.36-7.85-3.54.75-5.55,5.47-4.47,10.56Z"/>
            <path class="cls-50" d="m518.82,352.89c-.54,7.12-6.33,12.49-12.92,11.99-6.59-.5-11.5-6.69-10.96-13.81.54-7.12,6.33-12.49,12.92-11.99,6.59.51,11.5,6.69,10.95,13.81Z"/>
            <path class="cls-49" d="m513.98,369.77c-1.83,4.86-6.06,7.77-9.45,6.49-3.39-1.28-4.65-6.25-2.82-11.12,1.83-4.86,6.06-7.77,9.45-6.49,3.39,1.28,4.65,6.25,2.82,11.12Z"/>
            <path class="cls-23" d="m508.99,359.1c-2.17,28.5-15.66,58-38.47,56.26-19.6-1.49-33.92-29.09-31.75-57.58,2.17-28.5,19.46-43.72,39.36-42.2,19.9,1.52,33.04,15.02,30.86,43.52Z"/>
            <g>
              <path class="cls-33" d="m457.25,353.62c6.96.53,11.19,5.3,9.83,8.36-6.46-3.67-12.89-4.24-20.81-1.59-.88-3.23,4.03-7.3,10.98-6.77"/>
              <path class="cls-33" d="m457.94,364.73c-.1,1.3-.97,2.29-1.95,2.22-.98-.07-1.69-1.19-1.59-2.49.1-1.3.97-2.29,1.94-2.22.98.07,1.69,1.19,1.59,2.49Z"/>
            </g>
            <g>
              <path class="cls-33" d="m491.04,356.19c-6.96-.53-11.87,3.54-10.98,6.78,6.94-2.65,13.38-2.24,20.81,1.59,1.36-3.06-2.87-7.83-9.83-8.36"/>
              <path class="cls-37" d="m471.39,400.21c6.96.53,11.87-3.54,10.98-6.78-6.94,2.65-13.38,2.23-20.81-1.59-1.36,3.06,2.87,7.83,9.83,8.37"/>
              <path class="cls-33" d="m488.68,367.08c-.1,1.3.61,2.42,1.59,2.49.97.07,1.85-.92,1.95-2.22.1-1.3-.61-2.42-1.59-2.49-.97-.08-1.85.92-1.95,2.22Z"/>
            </g>
            <path class="cls-33" d="m476.5,387.65c-2.1-.16-4.65.99-4.71,1.02,0,0-2.39-1.63-4.52-1.79-2.12-.16-10.9,4.87-13.64,4.66,2.17,1.04,4.22,2.27,7.04,2.29,1.38.01,5.96-1.67,10.47-1.32,4.73.37,9.41,2.8,10.84,3,2.79.4,5-.5,7.3-1.2-2.74-.21-10.66-6.52-12.77-6.68Z"/>
            <path class="cls-50" d="m494.05,329.67s1.1-23.57,18.31-9.33c11.49,9.51,3.66,33.84-3.69,42.38,1.7-16.27-2.49-27.34-14.63-33.05Z"/>
            <path class="cls-12" d="m500.37,313.68c-7.04-13.95-37.33-30.47-59.29,13.88-7,17.37-2.26,21.64-1.85,25.55,1.46-7.14,4.05-10.74,12.09-16.23,14.84-10.12,20.09,18.18,40,1.09,6.15-5.28,13.38-15.69,9.05-24.3Z"/>
            <path class="cls-50" d="m501.9,311.54c-7.04-13.95-44.71-31.61-66.67,12.75-7,17.37,3.6,25.36,4,29.28,1.96-9.75,4.37-14.7,13.41-19.61,12.37-6.72,23.71,13.68,38.94.62,6.15-5.28,14.66-14.42,10.32-23.03Z"/>
            <g>
              <path class="cls-12" d="m479.71,378.44s-5.14,12.44-8.8,12.16c-3.66-.28-6.84-13.28-6.84-13.28l15.63,1.13Z"/>
              <path class="cls-39" d="m479.71,378.44s-4.92,9.54-8.58,9.27c-3.66-.28-7.07-10.46-7.07-10.46l15.65,1.2Z"/>
            </g>
          </g>
        </g>
      </g>
      <g>
        <path class="cls-10" d="m548.78,514.6c-18.72-8.95-12.21-50.46-12.21-50.46h-41.78s7.05,48.02-11.67,56.97c-18.72,8.96-56.87,40.97-56.87,64.3,0,65.92,107.2,71.99,153.75,57.42v-98.07c-13.02-14.56-20.97-25.26-31.22-30.16Z"/>
        <g>
          <path class="cls-49" d="m484.92,451.23s-5-6.14-7.43-3.19c-2.43,2.95,5.03,34.89,10.3,18.21,5.27-16.68-2.87-15.03-2.87-15.03Z"/>
          <path class="cls-33" d="m576.93,434.79c0,29.33-19.03,47.94-46.45,47.94s-52.86-18.62-52.86-47.94,22.23-53.1,49.66-53.1,49.65,23.77,49.65,53.1Z"/>
          <path class="cls-33" d="m520.86,393.34l-8.91,8.37s4.54,15.82,4.54,16.36,27.09,25.27,27.09,25.27l10-6.36,1.82-24.55-34.55-19.09Z"/>
          <path class="cls-33" d="m524.34,383.35c13.57,1.53,74.54,28.85,44.62,79.03-16.06,29.34-15.12,43.21-2.11,45.91-14.25,3.36-54.62-37.25-32.93-56.05,19.83-17.19,15.69-43.33-12.48-56.24-11.81-5.41-10.41-14.15,2.91-12.65Z"/>
          <path class="cls-33" d="m530.04,384.65s-23.13-8.62-24.7,14.44c2.87.89,12.66.07,12.66.07,0,0,3.08-3.56,8.35-.69,5.27,2.87,3.69-13.82,3.69-13.82Z"/>
          <path class="cls-37" d="m520.47,403.15c0,2.79-2.26,5.04-5.04,5.04h-7.06c-2.79,0-5.04-2.26-5.04-5.04h0c0-2.79,2.26-5.04,5.04-5.04h7.06c2.79,0,5.04,2.26,5.04,5.04h0Z"/>
          <g>
            <g>
              <path class="cls-49" d="m539.46,451.23s5-6.14,7.44-3.19c2.43,2.95-5.03,34.89-10.3,18.21-5.27-16.68,2.87-15.03,2.87-15.03Z"/>
              <g>
                <g>
                  <path class="cls-12" d="m491.59,482.01s14.64,21.41,23.86,21.13c11.39-.35,20.71-20.01,20.67-26.9-.04-6.9-44.53,5.78-44.53,5.78Z"/>
                  <path class="cls-23" d="m542.97,446.2c2.09,27.11-14.46,50.83-28.36,51.25-10.95.33-31.37-15.4-34.11-42.46-3.72-36.6,9.58-43.34,28.47-45.26,30.55-3.1,31.91,9.36,34,36.47Z"/>
                </g>
                <g>
                  <path class="cls-12" d="m517.13,469.39s-1.49,7.84-3.7,7.99c-2.21.15-5.74-7.29-5.74-7.29l9.44-.7Z"/>
                  <path class="cls-56" d="m517.13,469.39s-1.72,6.1-3.93,6.26c-2.21.15-5.52-5.59-5.52-5.59l9.46-.66Z"/>
                </g>
                <path class="cls-33" d="m497.01,453.04c1.6.82,2.4,2.45,1.79,3.65-.61,1.2-2.41,1.51-4.01.7-1.6-.82-2.4-2.46-1.79-3.66.61-1.2,2.41-1.51,4.01-.7Z"/>
                <path class="cls-33" d="m525.61,451.87c-1.6.82-2.4,2.45-1.79,3.65.61,1.2,2.41,1.51,4.01.7,1.6-.82,2.41-2.46,1.79-3.66-.61-1.2-2.41-1.51-4.01-.7Z"/>
                <path d="m543.07,447.55l-.02-.02c0,.14.02.28.02.42v-.4Z"/>
              </g>
            </g>
            <path class="cls-37" d="m506.83,480.88c.06,2.29,3.09,5.31,6.8,5.4,3.7-.29,6.55-3.48,6.49-5.77-4.4-.93-8.95-.8-13.28.37Z"/>
          </g>
          <path class="cls-33" d="m511.53,423.19c29.61,0,28.09,9.84,31.62,26.05.63-2.9.85-5.85.85-8.97,0-23.76-14.54-37.27-32.47-37.27s-32.46,16.69-32.46,37.27c0,3.12.35,5.97.98,8.87,3.52-16.21,1.99-25.96,31.49-25.96Z"/>
        </g>
      </g>
      <g>
        <path class="cls-24" d="m384.43,495.48c-33.7-14.57-14.08-62.48-14.08-62.48l-57.66.07s21.93,51.01-14.5,65.05c-20.94,8.07-44.59,38.84-44.59,75.8,0,33.88,197.1,106.08,197.1-2.53,0-36.96-45.67-67-66.26-75.91Z"/>
        <path class="cls-12" d="m313.98,475.65s-4.26,29.67,23.8,29.67c31.88,0,28.94-29.67,28.94-29.67h-52.74Z"/>
        <path class="cls-49" d="m296.46,419.15c1.86,5.01,6.2,8.02,9.7,6.72,3.49-1.3,4.81-6.41,2.95-11.43-1.86-5.01-6.2-8.02-9.7-6.72-3.49,1.3-4.82,6.41-2.95,11.43Z"/>
        <path class="cls-49" d="m380.52,414.48c-1.13,5.23-4.99,8.82-8.63,8.04-3.64-.78-5.69-5.65-4.56-10.88,1.13-5.23,4.99-8.83,8.64-8.04,3.64.79,5.68,5.66,4.55,10.88Z"/>
        <path class="cls-23" d="m373.83,404.38c2.11,29.33-14.56,66.82-31.12,67.23-12.47.31-38.09-30.36-40.9-59.63-3.8-39.6,13.58-45.25,34.02-47.22,33.05-3.18,35.89,10.29,38,39.62Z"/>
        <path class="cls-33" d="m372,427.49c0,4.44-7.55,12.8-12.69,12.8-6.04,0-9.24-5.63-21.3-5.63s-15.26,5.63-21.3,5.63c-5.13,0-11-8.36-11-12.8s.13,11.61.13,11.61c0,10.96-4.91,57.95,31.59,57.95s34.43-46.99,34.43-57.95c0,0,.14-16.05.14-11.61Z"/>
        <path class="cls-33" d="m360.78,355.43c-8.26-2.85-19.91-12.3-21.84-29.87v-.26s-.02.09-.02.13c-.01-.04-.02-.08-.03-.13v.26c-1.94,17.58-13.59,27.02-21.84,29.87-9.03,3.12-22.59,11.75-20.32,27.85,2.28,16.09,5.01,27.03,5.01,27.03,0,0,2.11-28.12,12.75-32.53,12.39-5.14,36.44-5.14,48.83,0,10.64,4.41,10.3,32.43,10.3,32.43,0,0,5.19-10.85,7.46-26.94,2.27-16.1-11.29-24.72-20.32-27.85Z"/>
        <g>
          <path class="cls-37" d="m347.92,445.2c-4.73,1.42-16.83,1.29-22-.05,1.32,1.07,4.32,2.88,9.65,3.11,6.2.26,10.24-1.47,12.36-3.05Z"/>
          <g>
            <path class="cls-55" d="m336.11,451.34c4.67.07,10.34-4.31,12.25-6.48-.14.12-.29.23-.44.33-2.12,1.58-6.16,3.31-12.36,3.05-5.32-.22-8.32-2.03-9.64-3.1,1.37,1.54,5.82,6.14,10.19,6.2Z"/>
            <path class="cls-37" d="m336.11,451.34c-4.37-.06-8.82-4.66-10.19-6.2,0,0,0,0,0,0,0,0,0,0-.01,0,8.63,13.54,17.82,8.34,22.48-.31-.01.01-.02.01-.03.02-1.91,2.17-7.58,6.55-12.25,6.48Z"/>
          </g>
        </g>
        <g>
          <path class="cls-12" d="m344.14,426.85s-3.19,12.92-6.82,13.19c-3.62.26-8.63-12-8.63-12l15.45-1.19Z"/>
          <path class="cls-43" d="m344.14,426.85s-3.41,10.06-7.03,10.33c-3.62.26-8.45-9.2-8.45-9.2l15.48-1.13Z"/>
        </g>
        <path class="cls-33" d="m322.4,416.17c-.04,2.71-1.72,4.88-3.76,4.85-2.03-.03-3.64-2.26-3.6-4.96.04-2.71,1.73-4.88,3.75-4.85,2.03.03,3.65,2.26,3.6,4.97Z"/>
        <path class="cls-33" d="m350.29,416.17c.04,2.71,1.72,4.88,3.76,4.85,2.03-.03,3.64-2.26,3.6-4.96-.04-2.71-1.73-4.88-3.75-4.85-2.03.03-3.65,2.26-3.6,4.97Z"/>
      </g>
      <g>
        <path class="cls-29" d="m462.74,592.78c-17.64-8.93-11.5-57.62-11.5-57.62h-39.37s6.65,55.19-10.99,64.12c-17.64,8.93-61.25,33.55-61.25,56.81,0,3.69,2.6,12.29,7.19,23.91h182.97c0-65-49.41-78.29-67.05-87.22Z"/>
        <g>
          <g>
            <path class="cls-12" d="m407.37,560.57s11.25,22,22.75,22c18.88,0,24.66-21.41,25.62-27.83.97-6.43-48.37,5.83-48.37,5.83Z"/>
            <g>
              <path class="cls-19" d="m418.08,509.79c-.49,6.39-5.67,11.2-11.59,10.75-5.91-.45-10.31-6-9.83-12.38.49-6.39,5.68-11.2,11.59-10.75,5.91.45,10.31,6,9.82,12.38Z"/>
              <path class="cls-49" d="m397.6,517.62c.96,4.56,4.32,7.71,7.49,7.04,3.18-.67,4.97-4.91,4.01-9.47-.96-4.56-4.32-7.71-7.5-7.04-3.18.67-4.97,4.91-4.01,9.47Z"/>
              <path class="cls-19" d="m475.16,510.32c-.49,6.39-5.67,11.2-11.59,10.75-5.91-.45-10.31-5.99-9.83-12.38.49-6.39,5.68-11.2,11.59-10.75,5.91.45,10.31,6,9.82,12.39Z"/>
              <path class="cls-49" d="m470.82,525.45c-1.64,4.36-5.44,6.96-8.48,5.82-3.04-1.15-4.17-5.61-2.53-9.97,1.64-4.36,5.44-6.96,8.48-5.82,3.04,1.14,4.17,5.61,2.53,9.97Z"/>
              <path class="cls-23" d="m466.34,515.89c-1.95,25.55-14.04,52.01-34.49,50.45-17.58-1.34-30.42-26.08-28.47-51.63,1.95-25.55,17.45-39.2,35.29-37.84,17.85,1.36,29.62,13.47,27.67,39.02Z"/>
              <g>
                <path class="cls-19" d="m419.95,510.97c6.24.48,10.04,4.75,8.82,7.5-5.79-3.29-11.56-3.8-18.66-1.42-.79-2.9,3.61-6.55,9.85-6.08"/>
                <path class="cls-33" d="m420.57,520.94c-.09,1.17-.87,2.06-1.75,1.99-.87-.07-1.51-1.07-1.42-2.23.09-1.17.87-2.06,1.74-1.99.88.07,1.51,1.07,1.42,2.23Z"/>
              </g>
              <g>
                <path class="cls-19" d="m450.25,513.28c-6.24-.47-10.64,3.18-9.85,6.07,6.22-2.38,12-2,18.66,1.42,1.22-2.74-2.58-7.02-8.81-7.5"/>
                <path class="cls-33" d="m448.13,523.04c-.09,1.17.55,2.17,1.42,2.23.87.07,1.66-.83,1.74-1.99.09-1.17-.55-2.17-1.42-2.23-.87-.07-1.66.83-1.75,1.99Z"/>
              </g>
              <path class="cls-19" d="m452.95,489.5s.98-21.14,16.42-8.36c10.3,8.53,3.28,30.34-3.31,38,1.52-14.59-2.23-24.52-13.12-29.63Z"/>
              <path class="cls-12" d="m458.61,475.16c-6.31-12.51-33.48-27.32-53.16,12.45-6.28,15.58-2.03,19.4-1.66,22.91,1.31-6.4,3.63-9.63,10.84-14.55,13.3-9.08,18.01,16.3,35.87.98,5.51-4.73,12-14.07,8.11-21.79Z"/>
              <path class="cls-19" d="m459.98,473.24c-6.31-12.51-40.09-28.34-59.78,11.43-6.28,15.58,3.22,22.74,3.59,26.25,1.76-8.74,3.92-13.18,12.02-17.59,11.09-6.03,21.26,12.27,34.91.55,5.51-4.73,13.15-12.93,9.25-20.65Z"/>
            </g>
          </g>
          <g>
            <path class="cls-37" d="m430.44,557.72c6.21.77,11.01-4.95,10.36-7.89-6.33,2.08-12.31,3.72-18.8-.02-1.35,2.68,2.24,7.14,8.44,7.91"/>
            <path class="cls-19" d="m466.72,515.15c-3.72,18.14-7.73,22.39-10.9,25.12-3.16,2.74-13.42,5.72-23.05-1.41-.05-.04-.1-.06-.15-.09h0s0,0-.01,0c0,0,0,0,0,0h0c-.05.03-.11.05-.16.07-10.86,5.07-20.32.12-22.88-3.2-2.57-3.3-5.58-8.26-5.63-26.78-9.52,38.24,2.06,65.32,24.79,67.17.05,0,.11.01.17.02.05,0,.11.01.16.02,22.64,2.7,39.43-21.54,37.69-60.91Zm-36.52,47.59c-5.28-.42-10.18-5.19-9.31-13.85.17-1.71,5.58-2.01,10.85-1.47,5.27.51,10.51,1.88,10.34,3.59-.87,8.66-6.62,12.36-11.87,11.73Z"/>
            <path class="cls-27" d="m441.1,536.73s-5.76,10.29-9.77,9.85c-4.01-.45-7.37-11.75-7.37-11.75l17.14,1.91Z"/>
          </g>
        </g>
      </g>
      <g>
        <path class="cls-54" d="m580,627.09c-1.51-.71-2.94-1.36-4.24-1.92-28.24-12.21-11.8-52.35-11.8-52.35h-50.14s20.2,42.8-10.32,54.57c-17.03,6.57-49.62,23.31-51.52,52.61h128.03v-52.91Z"/>
        <g>
          <path class="cls-40" d="m563.43,498.88c-9.38,0-16.98,7.6-16.98,16.99s7.6,16.99,16.98,16.99c8.1,0,14.86-5.67,16.57-13.25v-7.47c-1.7-7.58-8.47-13.25-16.57-13.25Z"/>
          <path class="cls-40" d="m548.26,500.57c-13.8,2.73-21.43,22.86-17.05,44.96,4.38,22.09,19.12,37.79,32.91,35.06,7.32-1.45,12.9-7.79,15.88-16.73v-33.12c-5.43-19.47-18.98-32.7-31.74-30.17Z"/>
          <g>
            <path class="cls-40" d="m493.73,535.63c4.38-22.1,19.11-37.79,32.91-35.06,13.8,2.73,21.43,22.86,17.06,44.96-4.38,22.09-19.12,37.79-32.91,35.06-13.8-2.74-21.43-22.86-17.05-44.96Z"/>
            <g>
              <g>
                <path class="cls-12" d="m515.4,581.13s15.34,29.93,25.29,29.93c13.67,0,19.95-21.53,20.1-27.77.15-6.25-45.39-2.15-45.39-2.15Z"/>
                <path class="cls-49" d="m503.11,562.76c1.46,4.24,5.03,6.85,7.98,5.83,2.96-1.01,4.17-5.27,2.71-9.51-1.45-4.24-5.03-6.85-7.98-5.83-2.95,1.01-4.16,5.27-2.71,9.51Z"/>
                <path class="cls-49" d="m573.62,560.61c-1.05,4.35-4.37,7.29-7.4,6.55s-4.64-4.86-3.59-9.21c1.05-4.36,4.37-7.29,7.4-6.55,3.04.74,4.64,4.86,3.59,9.21Z"/>
                <path class="cls-23" d="m568.23,552c1.15,24.61-13.59,55.66-27.47,55.66-10.45,0-31.27-26.23-33.01-50.8-2.36-33.25,12.32-37.62,29.48-38.84,27.75-1.97,29.85,9.37,31,33.98Z"/>
              </g>
              <g>
                <path class="cls-12" d="m542.01,574.77s-.73,6.65-2.52,7.03c-1.79.37-5.11-5.4-5.11-5.4l7.62-1.63Z"/>
                <path class="cls-21" d="m542.01,574.77s-1.02,5.24-2.81,5.62c-1.79.38-4.83-4.01-4.83-4.01l7.64-1.6Z"/>
              </g>
              <path class="cls-33" d="m526.21,562.83c.08,1.63-.85,2.99-2.07,3.05-1.22.06-2.27-1.22-2.34-2.84-.08-1.63.85-2.99,2.07-3.05,1.22-.06,2.27,1.22,2.35,2.84Z"/>
              <path class="cls-33" d="m550.35,563.75c-.08,1.62.85,2.99,2.07,3.05,1.22.06,2.27-1.22,2.34-2.84.08-1.62-.85-2.99-2.07-3.05-1.22-.06-2.27,1.22-2.35,2.84Z"/>
              <g>
                <path class="cls-37" d="m550.41,586.11c-4.7,1.71-16.94,2.27-22.25,1.21,1.4,1,4.54,2.66,9.93,2.58,6.28-.09,10.26-2.07,12.31-3.79Z"/>
                <g>
                  <path class="cls-55" d="m538.83,593c4.72-.2,10.21-4.95,12.01-7.26-.14.13-.28.25-.43.36-2.05,1.72-6.04,3.7-12.31,3.79-5.39.08-8.52-1.58-9.93-2.58,1.47,1.47,6.24,5.86,10.66,5.68Z"/>
                  <path class="cls-37" d="m538.83,593c-4.42.19-9.19-4.21-10.66-5.68,0,0,0,0,0,0h0c9.51,13.19,18.49,7.4,22.71-1.6,0,0-.02.02-.03.03-1.8,2.31-7.29,7.06-12.01,7.26Z"/>
                </g>
              </g>
            </g>
            <path class="cls-40" d="m520.14,531.89c0,9.38-7.61,16.99-16.99,16.99s-16.99-7.61-16.99-16.99,7.6-16.99,16.99-16.99,16.99,7.6,16.99,16.99Z"/>
            <path class="cls-40" d="m576.47,519.22c0,9.38-7.61,16.99-16.99,16.99s-16.99-7.61-16.99-16.99,7.6-16.99,16.99-16.99,16.99,7.6,16.99,16.99Z"/>
            <path class="cls-40" d="m528.83,514.51c0,9.38-7.6,16.99-16.99,16.99s-16.99-7.61-16.99-16.99,7.61-16.99,16.99-16.99,16.99,7.6,16.99,16.99Z"/>
            <path class="cls-40" d="m546.48,503.65c0,9.38-7.6,16.99-16.99,16.99s-16.99-7.61-16.99-16.99,7.61-16.99,16.99-16.99,16.99,7.61,16.99,16.99Z"/>
            <path class="cls-40" d="m564.67,506.09c0,9.38-7.61,16.99-16.99,16.99s-16.98-7.61-16.98-16.99,7.6-16.99,16.98-16.99,16.99,7.6,16.99,16.99Z"/>
            <path class="cls-40" d="m511.91,553.52c0,7.12-5.77,12.89-12.89,12.89s-12.89-5.77-12.89-12.89,5.77-12.89,12.89-12.89,12.89,5.77,12.89,12.89Z"/>
            <path class="cls-40" d="m561.96,518.31c0,10.28-8.33,18.62-18.62,18.62s-18.61-8.33-18.61-18.62,8.33-18.62,18.61-18.62,18.62,8.34,18.62,18.62Z"/>
          </g>
        </g>
      </g>
      <g>
        <path class="cls-2" d="m86.92,410.19c-19.92-9.53-13.86-61.48-13.86-61.48H14.17s7.79,54.55-12.12,64.08c-.66.32-1.35.64-2.05.98v104.18c62.27,6.46,151.87-16.73,151.87-38.48,0-36.37-45.03-59.75-64.95-69.28Z"/>
        <g>
          <path class="cls-22" d="m10.26,319.78c0,21.98,15.34,33.19,35.43,33.19s35.17-11.99,35.17-33.96-15.08-41.33-35.17-41.33-35.43,20.13-35.43,42.11Z"/>
          <g>
            <path class="cls-12" d="m68.18,381.23s-7.39,25.46-24.46,25.29c-17.08-.16-26.62-20.55-26.79-27.88-.18-7.33,51.26,2.59,51.26,2.59Z"/>
            <path class="cls-45" d="m86.54,338.79c-1.71,4.98-5.9,8.04-9.37,6.85-3.47-1.19-4.89-6.19-3.19-11.17,1.71-4.97,5.91-8.04,9.38-6.85,3.46,1.19,4.89,6.19,3.18,11.17Z"/>
            <path class="cls-45" d="m3.74,336.26c1.24,5.11,5.13,8.56,8.69,7.69,3.56-.86,5.45-5.7,4.21-10.82-1.24-5.12-5.13-8.56-8.69-7.7-3.56.86-5.45,5.71-4.21,10.82Z"/>
            <path class="cls-22" d="m10.07,326.16c-1.35,28.91,8.55,60.23,31.68,61.31,19.88.93,37.3-26.73,39.35-55.59,2.77-39.05-14.48-44.02-34.62-45.61-20.4-1.61-35.06,11-36.41,39.9Z"/>
            <path class="cls-6" d="m42.5,375.75c-7.06-.33-11.3-7.62-10.01-10.76,6.64,3.52,12.98,6.5,20.93,3.58.99,3.25-3.86,7.51-10.91,7.18"/>
            <g>
              <path class="cls-33" d="m59.94,337.13c-.09,1.91,1,3.51,2.43,3.58,1.43.07,2.67-1.43,2.75-3.34.09-1.91-1-3.51-2.43-3.58-1.44-.07-2.67,1.43-2.76,3.34Z"/>
              <path class="cls-33" d="m62.1,325.7c-7.18.68-11.77,6.15-10.58,8.46,6.73-3.98,13.54-4.95,21.08.8,1.13-3.41-3.31-9.87-10.5-9.26"/>
            </g>
            <g>
              <path class="cls-33" d="m29.81,334.99c-.18,1.9-1.49,3.34-2.91,3.2-1.43-.13-2.44-1.79-2.26-3.69.18-1.9,1.49-3.34,2.92-3.2,1.43.14,2.44,1.79,2.26,3.7Z"/>
              <path class="cls-33" d="m29.29,323.37c7.02,1.69,10.79,7.75,9.28,9.86-6.1-4.89-12.71-6.81-20.97-2.17-.64-3.54,4.67-9.31,11.7-7.69"/>
            </g>
            <path class="cls-33" d="m40.55,396.41c.06,0,.12,0,.19.01.06,0,.13,0,.19.01,25.64,2.3,43.72-25.62,40.46-69.99-3.61,20.59-7.91,25.53-11.4,28.72-3.49,3.2-14.96,6.9-26.07-.83-.05-.04-.11-.07-.17-.1h0s0-.01-.01,0c0,0-.01,0-.01,0h0c-.06.04-.12.06-.18.09-12.09,6.08-22.93.8-25.93-2.86-3.01-3.65-6.65-9.15-7.32-30.04-9.49,43.47,4.55,73.66,30.26,75Zm-9.71-30.37c.14-1.93,6.23-2.46,12.2-2.01,5.96.4,11.93,1.78,11.79,3.71-.7,9.8-7.07,14.17-13.02,13.62-5.97-.3-11.66-5.52-10.96-15.32Z"/>
            <path class="cls-58" d="m34.66,350.34s4.44,12.56,8.98,12.83c4.54.27,10.45-11.67,10.45-11.67l-19.43-1.16Z"/>
          </g>
        </g>
      </g>
      <g>
        <g>
          <path class="cls-54" d="m183.56,439.71c-21.23-10.15-15.08-61.85-15.08-61.85h-47.39s6.15,56.77-15.08,66.93c-21.23,10.16-65.78,34.53-65.78,70.54s218.21,37.46,218.21,1.93c0-44.77-53.66-67.39-74.89-77.54Z"/>
          <g>
            <path class="cls-49" d="m191.52,376.8c-2.7,5.85-7.73,9.2-11.24,7.47-3.51-1.73-4.17-7.87-1.48-13.73,2.7-5.85,7.73-9.2,11.24-7.47,3.51,1.73,4.17,7.87,1.48,13.73Z"/>
            <path class="cls-49" d="m105.83,371.27c1.31,6.98,5.5,11.26,9.35,9.56,3.85-1.7,5.91-8.73,4.59-15.71-1.31-6.98-5.5-11.26-9.35-9.56-3.85,1.7-5.91,8.73-4.59,15.71Z"/>
            <path class="cls-23" d="m113.4,350.05c2.08,62.62,13.83,70.9,29.5,72.67,30.83,3.49,40.03-7.32,43.77-59.78,2.97-41.62-7.93-47.05-29.1-50.99-34.24-6.36-45.2,7.27-44.17,38.1Z"/>
          </g>
          <path class="cls-23" d="m157.57,311.95c13.21,2.45,25.05,6.3,30.23,18.81l-56.82-18.05c5.97-2.71,14.35-3.03,26.59-.76Z"/>
          <g>
            <path class="cls-33" d="m166.03,365.58c-.43,2.68.85,5.12,2.86,5.44,2.01.32,3.99-1.59,4.42-4.27.43-2.68-.85-5.12-2.86-5.44-2.01-.32-3.99,1.59-4.42,4.27Z"/>
            <path class="cls-33" d="m157.94,362.27c8.63-4.77,15.1-5.78,22.51.82,1.34-3.36-3.14-9.77-10.96-8.6-7.81,1.17-11.56,7.77-11.56,7.77Z"/>
          </g>
          <g>
            <path class="cls-33" d="m134.9,362.05c-.18,2.71-1.97,4.8-4.01,4.66-2.03-.14-3.53-2.44-3.35-5.15.18-2.71,1.98-4.8,4-4.67,2.04.14,3.54,2.44,3.36,5.15Z"/>
            <path class="cls-33" d="m143.53,360.64c-7.34-6.58-13.43-9.01-22.13-4.23-.56-3.57,5.25-8.82,12.6-5.93,7.35,2.89,9.53,10.16,9.53,10.16Z"/>
          </g>
        </g>
        <path class="cls-19" d="m185.83,347.21c-1.24-.23-2.89,28-2.89,36.44s-4,15.32-9.64,15.32c-6.64,0-10.15-10.58-23.42-10.58s-16.78,10.58-23.42,10.58c-5.64,0-9.64-6.89-9.64-15.32s-1.65-36.66-2.89-36.44c0,14.06-.73,58.47-.73,58.47,0,20.81,7.6,27.22,19.3,34.52,8.21,4.88,10.14-1.51,17.37-1.52h0c7.23.01,9.16,6.39,17.37,1.52,11.7-7.3,19.3-13.71,19.3-34.52,0,0-.72-44.41-.72-58.47Z"/>
        <path class="cls-19" d="m191.84,329.07c0-1.73-.55-3.31-1.45-4.6.32-.87.51-1.81.51-2.8,0-2.19-.87-4.17-2.24-5.58.51-1.06.82-2.23.82-3.5,0-3.27-1.91-6.05-4.6-7.19-.19-5.45-4.38-9.81-9.55-9.81-1.14,0-2.24.23-3.26.62-1.13-3.39-4.14-5.83-7.72-5.83-1.27,0-2.46.33-3.53.88-1.5-1.67-3.6-2.73-5.94-2.73-1.97,0-3.76.77-5.18,2-1.5-1.74-3.64-2.84-6.03-2.84-2.96,0-5.53,1.68-6.98,4.18-1.16-.84-2.56-1.32-4.07-1.32-3.52,0-6.45,2.66-7.13,6.2-.45-.09-.92-.15-1.4-.15-3.6,0-6.57,2.79-7.15,6.45-4.13,1.63-7.07,5.84-7.07,10.8,0,1.35.23,2.64.63,3.84-1.53,1.42-2.52,3.49-2.52,5.82,0,1.16.25,2.25.68,3.24-1,1.33-1.63,3-1.63,4.83,0,1.31.33,2.52.87,3.61-.82,12.47,1.17,25.81,6.62,36.68,0,0,.29-31.91,8.7-33.34,9.77-1.66,9.89,4.95,26.4,5h.21c16.52-.05,16.63-6.66,26.4-5,8.41,1.43,8.69,33.34,8.69,33.34,5.91-11.79,7.78-26.51,6.36-39.86.35-.91.55-1.9.55-2.95Z"/>
        <g>
          <path class="cls-12" d="m140.92,381.8s6.01,13.6,10.09,12.95c4.08-.65,7.34-15.65,7.34-15.65l-17.43,2.71Z"/>
          <path class="cls-59" d="m140.92,381.8s5.7,10.35,9.78,9.7c4.08-.65,7.67-12.49,7.67-12.49l-17.45,2.79Z"/>
        </g>
        <path class="cls-55" d="m139,398.43c-.44,3.82,3.87,9.53,10,10.55,6.2.38,11.68-4.22,12.1-8.04-7.06-2.57-14.64-3.43-22.1-2.5Z"/>
      </g>
      <g>
        <g>
          <path class="cls-57" d="m174.92,445.77c0-38.04,10.18-68.88,22.75-68.88s22.75,30.84,22.75,68.88-10.18,68.87-22.75,68.87-22.75-30.83-22.75-68.87Z"/>
          <path class="cls-57" d="m221.48,445.94c0-37.94,10.19-68.7,22.75-68.7s22.75,30.76,22.75,68.7-10.18,68.7-22.75,68.7-22.75-30.76-22.75-68.7Z"/>
          <g>
            <g>
              <path class="cls-23" d="m257.78,494.86c-19.52-9.33-12.73-60.24-12.73-60.24h-43.56s7.35,57.7-12.16,67.03c-19.51,9.33-59.29,35.07-59.29,59.4,0,32.66,189.22,34.36,189.22,1.7,0-35.64-41.97-58.55-61.48-67.88Z"/>
              <g>
                <path class="cls-23" d="m247.87,422.56s5.21-6.4,7.75-3.32c2.54,3.08-5.24,36.38-10.74,18.99-5.49-17.39,2.99-15.67,2.99-15.67Z"/>
                <path class="cls-23" d="m192.17,425.68s-5.21-6.4-7.75-3.32c-2.54,3.08,5.24,36.38,10.74,18.99,5.49-17.39-2.99-15.67-2.99-15.67Z"/>
                <g>
                  <g>
                    <path class="cls-12" d="m197.67,453.56s15.92,28.97,25.53,28.67c11.87-.36,22.4-25.06,22.35-32.25-.04-7.19-47.88,3.58-47.88,3.58Z"/>
                    <path class="cls-31" d="m251.73,415.91c2.18,28.27-13.32,60.52-27.8,60.96-11.42.35-34.46-23.59-37.32-51.8-3.88-38.16,9.98-45.18,29.68-47.18,31.85-3.24,33.27,9.75,35.45,38.02Z"/>
                  </g>
                  <g>
                    <path class="cls-12" d="m224.78,440.09s-1.55,8.17-3.86,8.33c-2.31.16-5.98-7.6-5.98-7.6l9.84-.73Z"/>
                    <path class="cls-14" d="m224.78,440.09s-1.79,6.36-4.1,6.52c-2.3.16-5.76-5.83-5.76-5.83l9.86-.69Z"/>
                  </g>
                  <path class="cls-33" d="m230.85,424.52c-.03,1.87,1.08,3.41,2.49,3.43,1.4.02,2.57-1.48,2.6-3.35.03-1.87-1.09-3.41-2.49-3.43-1.4-.02-2.57,1.48-2.6,3.35Z"/>
                  <path class="cls-33" d="m205.2,425.12c.14,1.87-.87,3.47-2.28,3.58-1.4.11-2.65-1.32-2.8-3.19-.14-1.87.88-3.47,2.27-3.58,1.4-.11,2.66,1.32,2.8,3.19Z"/>
                  <path d="m251.83,417.32l-.02-.02c0,.15.02.29.02.44,0-.17,0-.32,0-.42Z"/>
                </g>
                <path class="cls-37" d="m212.52,453.04c5.06,9.77,14.61,6.81,17.87,1.15-2.51,2.25-13.63,1.96-17.87-1.15Z"/>
              </g>
            </g>
            <path class="cls-26" d="m264.04,497.96c-12.39,7.4-22.3,11.3-37.27,8.52-7.03,3.2-31.77,1.15-41.75-2.67-20.51,10.72-54.97,34.58-54.97,57.23,0,32.66,189.22,34.36,189.22,1.7s-34.22-53.98-55.23-64.78Z"/>
            <path class="cls-54" d="m231.58,545.15c0,3.19-2.59,5.78-5.78,5.78s-5.78-2.59-5.78-5.78,2.59-5.78,5.78-5.78,5.78,2.59,5.78,5.78Z"/>
            <path class="cls-54" d="m231.58,570.38c0,3.19-2.59,5.78-5.78,5.78s-5.78-2.59-5.78-5.78,2.59-5.78,5.78-5.78,5.78,2.59,5.78,5.78Z"/>
          </g>
          <path class="cls-57" d="m223.5,362.97c-23.52-.42-44.04,19.93-44.56,48.04-.03,2.4,1.18,6.79,1.37,9.1-.74-.26,18.2-29.52,18.2-29.52,23.94,26.23,64.72,24.82,64.69,22.42-.5-28.1-19.94-50.48-43.47-50.03"/>
        </g>
        <path class="cls-25" d="m174.92,445.77c0-38.04,10.18-68.88,22.75-68.88s22.75,30.84,22.75,68.88-10.18,68.87-22.75,68.87-22.75-30.83-22.75-68.87Z"/>
        <path class="cls-25" d="m221.48,445.94c0-37.94,10.19-68.7,22.75-68.7s31.8,38.95,31.8,76.9-9.52,64.31-22.08,64.31-32.46-34.56-32.46-72.5Z"/>
        <g>
          <g>
            <path class="cls-23" d="m257.78,494.86c-19.52-9.33-12.73-60.24-12.73-60.24h-43.56s7.35,57.7-12.16,67.03c-19.51,9.33-59.29,35.07-59.29,59.4,0,32.66,189.22,34.36,189.22,1.7,0-35.64-41.97-58.55-61.48-67.88Z"/>
            <g>
              <path class="cls-23" d="m247.87,422.56s5.21-6.4,7.75-3.32c2.54,3.08-5.24,36.38-10.74,18.99-5.49-17.39,2.99-15.67,2.99-15.67Z"/>
              <path class="cls-23" d="m192.17,425.68s-5.21-6.4-7.75-3.32c-2.54,3.08,5.24,36.38,10.74,18.99,5.49-17.39-2.99-15.67-2.99-15.67Z"/>
              <g>
                <g>
                  <path class="cls-12" d="m197.67,453.56s15.92,28.97,25.53,28.67c11.87-.36,22.4-25.06,22.35-32.25-.04-7.19-47.88,3.58-47.88,3.58Z"/>
                  <path class="cls-31" d="m251.73,415.91c2.18,28.27-13.32,60.52-27.8,60.96-11.42.35-34.46-23.59-37.32-51.8-3.88-38.16,9.98-45.18,29.68-47.18,31.85-3.24,33.27,9.75,35.45,38.02Z"/>
                </g>
                <g>
                  <path class="cls-12" d="m224.78,440.09s-1.55,8.17-3.86,8.33c-2.31.16-5.98-7.6-5.98-7.6l9.84-.73Z"/>
                  <path class="cls-14" d="m224.78,440.09s-1.79,6.36-4.1,6.52c-2.3.16-5.76-5.83-5.76-5.83l9.86-.69Z"/>
                </g>
                <path class="cls-33" d="m230.85,424.52c-.03,1.87,1.08,3.41,2.49,3.43,1.4.02,2.57-1.48,2.6-3.35.03-1.87-1.09-3.41-2.49-3.43-1.4-.02-2.57,1.48-2.6,3.35Z"/>
                <path class="cls-33" d="m205.2,425.12c.14,1.87-.87,3.47-2.28,3.58-1.4.11-2.65-1.32-2.8-3.19-.14-1.87.88-3.47,2.27-3.58,1.4-.11,2.66,1.32,2.8,3.19Z"/>
              </g>
              <path class="cls-37" d="m212.52,453.04c5.06,9.77,14.61,6.81,17.87,1.15-2.51,2.25-13.63,1.96-17.87-1.15Z"/>
            </g>
          </g>
          <path class="cls-33" d="m264.04,497.96c-12.39,7.4-69.04,9.68-79.02,5.85-20.51,10.72-54.97,34.58-54.97,57.23,0,126.12,194.95,74.36,194.95,10.86,0-38.05-39.96-63.14-60.96-73.94Z"/>
        </g>
        <path class="cls-25" d="m223.5,362.97c-23.52-.42-44.04,19.93-44.56,48.04-.03,2.4,1.18,6.79,1.37,9.1-.74-.26,18.2-29.52,18.2-29.52,23.94,26.23,64.72,24.82,64.69,22.42-.5-28.1-19.94-50.48-43.47-50.03"/>
      </g>
      <g>
        <g>
          <path class="cls-37" d="m303.93,588.85c-19.46-9.3-8.46-62.6-8.46-62.6h-49.91s1.69,53.29-17.77,62.6c-19.46,9.3-64.29,27.92-64.29,63.44,0,32.57,208.95,34.26,208.95,1.69,0-35.53-49.06-55.83-68.52-65.14Z"/>
          <path class="cls-49" d="m303.93,588.85c-19.46-9.3-8.46-62.6-8.46-62.6h-49.91s1.69,53.29-17.77,62.6c-19.46,9.3-64.29,27.92-64.29,63.44,0,32.57,208.95,34.26,208.95,1.69,0-35.53-49.06-55.83-68.52-65.14Z"/>
          <path class="cls-12" d="m243.3,551.55s-.24,21.76,21.71,21.76c29.05,0,26.85-17.08,28.1-21.57,1.15-4.13-49.81-.2-49.81-.2Z"/>
          <path class="cls-49" d="m227.9,510.27c1.32,4.97,5.2,8.25,8.66,7.33,3.46-.92,5.2-5.69,3.88-10.66-1.32-4.97-5.2-8.25-8.66-7.33-3.46.92-5.2,5.69-3.88,10.66Z"/>
          <path class="cls-49" d="m308.76,513.53c-1.56,4.9-5.59,7.99-9,6.9-3.41-1.09-4.92-5.94-3.36-10.83,1.56-4.9,5.59-7.99,9.01-6.9,3.41,1.09,4.91,5.94,3.35,10.83Z"/>
          <path class="cls-23" d="m303.29,503.25c-.68,28.26-12.49,58.09-35.11,57.55-19.44-.47-34.5-28.63-34.5-56.9,0-38.24,17.15-42.05,36.89-42.05,31.91,0,33.4,13.14,32.72,41.4Z"/>
          <path class="cls-12" d="m295.58,468.29s-15.13,37.84-53.52,9.11c5.53-18.63,53.52-9.11,53.52-9.11Z"/>
          <g>
            <path class="cls-55" d="m251.9,500.53c6.9,2.41,11.33,4.19,10.14,7.8-6.57-.19-12.95-6.64-20.64-.65-1.04-2.76,3.6-9.62,10.5-7.15"/>
            <path class="cls-33" d="m253.15,511.43c-.03,1.29-.84,2.32-1.81,2.29-.97-.02-1.73-1.09-1.69-2.38.03-1.29.84-2.32,1.81-2.29.97.02,1.73,1.09,1.7,2.38Z"/>
          </g>
          <g>
            <path class="cls-55" d="m284.67,500.53c-6.9,2.41-11.33,4.19-10.14,7.8,6.57-.19,12.95-6.64,20.64-.65,1.04-2.76-3.6-9.62-10.5-7.15"/>
            <path class="cls-33" d="m283.42,511.43c.03,1.29.84,2.32,1.81,2.29.97-.02,1.73-1.09,1.7-2.38-.03-1.29-.84-2.32-1.81-2.29-.97.02-1.73,1.09-1.7,2.38Z"/>
          </g>
          <path class="cls-55" d="m299.5,452.07c-5.74-7.04-18.51-10.51-31.36-10.44h0s-.07,0-.1,0c-.03,0-.06,0-.1,0h0c-12.85-.07-25.62,3.41-31.36,10.44-10,12.26-11.96,35.78-2.07,52.17,0,0,.27-25.24,8.28-26.37,9.3-1.31,9.42,3.92,25.15,3.95h0s.02,0,.02,0h.17c15.73-.04,15.84-5.27,25.15-3.96,8.01,1.13,8.28,26.37,8.28,26.37,9.89-16.38,7.92-39.91-2.07-52.17Z"/>
          <path class="cls-55" d="m301.97,518c-.54,2.99-4.04,14.29-9.75,14.29-6.72,0-10.27-8.57-23.69-8.57s-16.97,8.57-23.69,8.57c-5.71,0-8.38-9.56-9.75-14.29-.95-3.27.15,12.96.15,12.96,0,12.24,7.06,27.82,18.89,32.12,8.3,2.87,20.49,2.87,28.8,0,11.83-4.29,18.89-19.88,18.89-32.12,0,0,1.03-17.84.15-12.96Z"/>
          <g>
            <path class="cls-12" d="m275.68,524.65s-8.49,10.25-11.86,8.92c-3.38-1.33-2.58-14.55-2.58-14.55l14.44,5.63Z"/>
            <path class="cls-8" d="m275.68,524.65s-7.43,7.58-10.81,6.25c-3.38-1.33-3.63-11.95-3.63-11.95l14.44,5.7Z"/>
          </g>
          <path class="cls-37" d="m268.26,545.79c6.9.16,11.54-4.11,10.5-7.26-6.72,2.97-13.1,2.89-20.64-.5-1.19,3.1,3.24,7.59,10.14,7.76"/>
        </g>
        <path class="cls-4" d="m371.92,647.71c-4.78-28.51-41.26-46.31-61.82-55.96-12.42,10.59-27.92,16.88-44.72,16.88s-32.01-6.17-44.38-16.58c-21.48,10.14-58.6-25.33-58.6,6.52,0,14.3,41.39,76.36,86.59,78.47l-2.95,2.95h129.69c.86-10.19-2.03-24.66-3.8-32.29Z"/>
      </g>
      <g>
        <path class="cls-13" d="m381.09,662.9c-16.83-8.05-7.32-54.16-7.32-54.16h-43.18s1.46,46.1-15.37,54.16c-7.82,3.74-20.39,9.22-31.6,17.1h129.73c-11.8-7.87-24.65-13.46-32.27-17.1Z"/>
        <path class="cls-12" d="m330.11,624.81s7.76,21.17,19.26,21.17c18.88,0,22.03-20.14,23-26.57.97-6.43-42.26,5.4-42.26,5.4Z"/>
        <g>
          <path class="cls-40" d="m322.39,601.66c.5-.09-1.62-20.5,7.73-38.73,9.87.92,3.67,12.16,38.05,4.44,3.7,4.71,10.51,17.91,11.89,32.18,6.03-8.13,9.94-23.69,10.2-35.38,2.56,10.58,3.15,14.79,2.35,22.26,3.46-8.02,9.58-31.1-11.76-48.18,11.63,5.14,10.47,4.28,19.78,14.6-1.5-7.8-8.2-21.62-23.93-28.85-14.97-7.25-38.97-7.93-57.6,10.01-14.98,18.25-17.65,46.49,3.29,67.65Z"/>
          <g>
            <g>
              <path class="cls-49" d="m315.32,594.92c1.14,4.3,4.5,7.13,7.49,6.34,2.99-.8,4.5-4.92,3.35-9.22-1.14-4.3-4.49-7.13-7.49-6.34-3,.8-4.5,4.92-3.35,9.22Z"/>
              <path class="cls-49" d="m385.27,597.74c-1.35,4.24-4.83,6.91-7.79,5.97-2.95-.94-4.25-5.14-2.9-9.37,1.35-4.24,4.84-6.91,7.79-5.97,2.95.94,4.25,5.14,2.9,9.37Z"/>
              <path class="cls-23" d="m380.54,588.85c-.59,24.45-10.85,51.4-30.42,50.92-16.81-.41-29.8-25.91-29.8-50.36,0-33.08,14.84-36.38,31.91-36.38,27.61,0,28.89,11.37,28.3,35.81Z"/>
              <path class="cls-37" d="m350.22,627.78c6.75-.19,5.15-4.64,8.26-6.99-7.66,2.22-7.79,1.97-16.73-.43,3.69,2.36,2.06,6.8,8.47,7.42"/>
              <g>
                <path class="cls-12" d="m357.09,606.8s-4.16,10.73-7.3,10.56c-3.14-.17-6.09-11.24-6.09-11.24l13.39.68Z"/>
                <path class="cls-30" d="m357.09,606.8s-4.03,8.26-7.17,8.09c-3.14-.17-6.24-8.82-6.24-8.82l13.41.73Z"/>
              </g>
            </g>
            <path class="cls-12" d="m373.24,554.93s-13.57,32.36-46.78,7.5c4.78-16.12,46.78-7.5,46.78-7.5Z"/>
          </g>
          <path class="cls-40" d="m376.53,551.82s-17.74,29.33-52.12,9.51c4.78-16.12,52.12-9.51,52.12-9.51Z"/>
          <g>
            <path class="cls-41" d="m344.94,593.27c-5.91-3.78-13.07-6.25-18.02-5.22,5.06-10.17,18.02,5.22,18.02,5.22Z"/>
            <path class="cls-33" d="m337.77,594.57c-.04,1.57-1.02,2.82-2.2,2.79-1.18-.03-2.1-1.32-2.06-2.89.04-1.57,1.02-2.82,2.2-2.79,1.18.03,2.1,1.32,2.06,2.89Z"/>
          </g>
          <g>
            <path class="cls-41" d="m357.75,593.27c5.91-3.78,13.07-6.25,18.02-5.22-5.06-10.17-18.02,5.22-18.02,5.22Z"/>
            <path class="cls-33" d="m364.91,594.57c.04,1.57,1.02,2.82,2.2,2.79,1.17-.03,2.1-1.32,2.06-2.89-.04-1.57-1.02-2.82-2.2-2.79-1.18.03-2.1,1.32-2.06,2.89Z"/>
          </g>
        </g>
      </g>
      <g>
        <path class="cls-33" d="m144.39,450.16c0,5.57-4.52,10.09-10.09,10.09s-10.09-4.52-10.09-10.09,4.52-10.09,10.09-10.09,10.09,4.52,10.09,10.09Z"/>
        <path class="cls-33" d="m146.7,484.36c0,5.57-4.52,10.09-10.09,10.09s-10.09-4.52-10.09-10.09,4.52-10.09,10.09-10.09,10.09,4.52,10.09,10.09Z"/>
        <path class="cls-33" d="m145.05,509.3c0,5.57-4.52,10.09-10.09,10.09s-10.09-4.52-10.09-10.09,4.52-10.09,10.09-10.09,10.09,4.52,10.09,10.09Z"/>
        <path class="cls-33" d="m147.85,526.97c0,5.57-4.51,10.09-10.09,10.09s-10.09-4.52-10.09-10.09,4.52-10.09,10.09-10.09,10.09,4.52,10.09,10.09Z"/>
        <path class="cls-33" d="m156.63,537.95c0,5.57-4.51,10.09-10.09,10.09s-10.09-4.52-10.09-10.09,4.52-10.09,10.09-10.09,10.09,4.52,10.09,10.09Z"/>
        <path class="cls-33" d="m159.03,520.39c0,5.57-4.51,10.09-10.09,10.09s-10.09-4.52-10.09-10.09,4.52-10.09,10.09-10.09,10.09,4.52,10.09,10.09Z"/>
        <path class="cls-33" d="m158.63,505.22c0,5.57-4.51,10.09-10.09,10.09s-10.09-4.52-10.09-10.09,4.52-10.09,10.09-10.09,10.09,4.52,10.09,10.09Z"/>
        <path class="cls-33" d="m58.99,466.19c0,5.57-4.52,10.09-10.09,10.09s-10.09-4.52-10.09-10.09,4.52-10.09,10.09-10.09,10.09,4.52,10.09,10.09Z"/>
        <path class="cls-33" d="m58.91,478.54c0,5.57-4.52,10.09-10.09,10.09s-10.09-4.52-10.09-10.09,4.52-10.09,10.09-10.09,10.09,4.52,10.09,10.09Z"/>
        <path class="cls-33" d="m77.38,528.93c0,10.57-8.56,19.13-19.12,19.13s-19.14-8.56-19.14-19.13,8.56-19.13,19.14-19.13,19.12,8.57,19.12,19.13Z"/>
        <path class="cls-33" d="m145.58,468.69c0,5.57-4.52,10.09-10.09,10.09s-10.09-4.52-10.09-10.09,4.51-10.09,10.09-10.09,10.09,4.52,10.09,10.09Z"/>
        <path class="cls-33" d="m133.17,528.87c0,5.57-4.52,10.09-10.09,10.09s-10.09-4.52-10.09-10.09,4.52-10.09,10.09-10.09,10.09,4.52,10.09,10.09Z"/>
        <path class="cls-33" d="m132.41,525.63c2.48-1.85,3.73-4.74,3.59-7.62.18-.1.37-.21.54-.35,3.29-.58,3.77-3.21,3.14-6.53.13-.08.27-.18.4-.27,2.76-2.04,3.35-5.9,1.33-8.62-.04-.05-.08-.09-.11-.13.56-.2,1.1-.49,1.6-.86,2.75-2.04,3.34-5.9,1.32-8.62-.54-.73-1.22-1.3-1.96-1.71.07-.04.14-.07.21-.13,3.32-2.45,4.01-7.13,1.55-10.45-.87-1.17-2.02-2-3.28-2.49.83-1.17.76-2.87-.47-4.24-.81-1.85-2.86-2.91-4.48-3.32-.08-.02-.2-.14-.35-.31,1.06-2.38.87-5.24-.79-7.48-1.69-2.28-4.44-3.28-7.06-2.91,2.08-3.06,2.15-7.2-.17-10.33-2.93-3.96-8.52-4.78-12.48-1.84-.06.04-.09.09-.15.13-.04-1.18-.39-2.37-1.15-3.4-2.02-2.72-5.89-3.28-8.64-1.24-.33.25-.62.52-.89.81-.37-.45-.78-.87-1.29-1.25-1.56-1.66-3.61-2.68-5.57-3.04-1.76-.47-3.71-.16-5.3,1.02-.68.51-1.22,1.14-1.63,1.82-2.45-.55-5.1-.12-7.27,1.5-1.51,1.12-2.56,2.63-3.12,4.28-2.87-1.33-6.34-1.13-9.06.89-3.46,2.56-4.53,7.16-2.78,10.92-1.32,1.71-1.67,4-.89,6-.29.15-.56.31-.83.52-2.35,1.75-3.12,4.82-2.03,7.38-.11.1-.21.21-.33.31-2.94,3.04-2.02,7.22,1.43,8.9.02.06.04.12.05.18.17-.16.34-.33.5-.49.65-.69,1.96-.75,2.68-1.39.71-.63,1.1-1.61,1.88-2.19.78-.58,1.3-1.58,2.1-2.08.58-.35,1.2-.67,1.81-.99,2.95,1.59,6.67,1.47,9.55-.66.52-.39.99-.82,1.4-1.3,2.06,1.27,4.55,1.64,6.89,1.04.25.5.53,1,.88,1.47,2.2,2.97,5.89,4.18,9.27,3.36.28,1.09.76,2.16,1.48,3.13,1.88,2.54,4.84,3.77,7.77,3.57.06.13.14.26.19.4.35.79.81,1.5,1.07,2.32.26.82,1.07,1.48,1.25,2.33.05.24.05.49.05.75-2.44,2.75-2.92,6.75-1.2,10.03-.19.84-.48,1.62-.74,2.46-.27.87.28,1.93-.07,2.79-.13.3-.32.59-.52.87-1.55.15-3.09.68-4.43,1.68-2.76,2.05-3.96,5.4-3.45,8.58-.06.04-.13.08-.18.12-.71.62-1.72.85-2.5,1.43-.78.58-1.2,1.64-2,2.14-.82.5-1.79.7-2.64,1.12-.85.44-1.65.99-2.53,1.34-.26.11-.52.19-.77.29.06.1.13.21.21.31,2.02,2.72,5.89,3.27,8.64,1.24.05-.04.1-.09.15-.13,1.8,1.22,4.26,1.55,6.15.58.12-.04.22-.1.33-.15,2.95,3.87,8.47,4.67,12.4,1.76.89-.66,1.61-1.48,2.18-2.36,2.88,1.36,6.39,1.18,9.13-.85Z"/>
        <path class="cls-33" d="m104.8,445.88c-2.78-1.36-5.92-1.15-8.42.3-.18-.12-.36-.24-.57-.32-2.02-2.66-4.57-1.88-7.25.2-.13-.08-.27-.17-.42-.24-3.07-1.51-6.78-.27-8.27,2.77-.02.06-.04.12-.07.16-.43-.41-.93-.75-1.49-1.03-3.07-1.51-6.78-.27-8.27,2.77-.41.81-.6,1.68-.62,2.53-.07-.04-.13-.09-.21-.13-3.7-1.82-8.18-.3-10,3.41-.65,1.31-.85,2.71-.71,4.06-1.43-.21-2.9.64-3.56,2.35-1.27,1.58-1.28,3.88-.9,5.51.02.07-.03.24-.11.45-2.61.15-5.06,1.63-6.3,4.13-1.25,2.54-.88,5.45.65,7.61-3.67-.46-7.38,1.38-9.1,4.88-2.18,4.43-.35,9.77,4.07,11.94.06.03.12.04.19.07-1.04.58-1.93,1.44-2.5,2.58-1.49,3.04-.21,6.73,2.86,8.24.37.19.74.32,1.12.42-.23.53-.41,1.1-.51,1.73-.75,2.15-.73,4.43-.15,6.34.4,1.78,1.56,3.38,3.34,4.25.76.37,1.57.56,2.36.61.63,2.43,2.24,4.59,4.67,5.78,1.69.83,3.5,1.07,5.23.81.13,3.16,1.9,6.16,4.94,7.65,3.87,1.9,8.44.74,10.98-2.53,2.13.39,4.32-.34,5.74-1.96.26.18.54.35.83.5,2.63,1.3,5.72.57,7.49-1.58.14.04.29.09.43.15,4.05,1.22,7.35-1.51,7.25-5.35.05-.04.09-.09.13-.13-.21-.07-.44-.15-.66-.22-.91-.26-1.56-1.39-2.46-1.74-.88-.34-1.93-.24-2.8-.67-.87-.43-2.01-.43-2.82-.92-.58-.35-1.14-.75-1.71-1.15.07-3.35-1.74-6.61-4.96-8.19-.59-.29-1.19-.49-1.8-.65.18-2.41-.63-4.8-2.23-6.6.34-.45.65-.93.9-1.46,1.63-3.32,1.02-7.15-1.26-9.78.85-.75,1.57-1.67,2.1-2.75,1.39-2.83,1.13-6.03-.39-8.54.09-.12.18-.24.27-.36.54-.67.96-1.4,1.57-2.01.61-.61.82-1.63,1.5-2.17.19-.16.41-.28.65-.39,3.56.91,7.34-.5,9.47-3.53.83-.22,1.66-.32,2.52-.47.9-.16,1.59-1.14,2.52-1.22.33-.03.67,0,1.01.06.84,1.31,2.02,2.43,3.52,3.17,3.09,1.52,6.61,1.05,9.2-.86.07.03.12.08.19.1.88.34,1.55,1.14,2.42,1.57.87.43,2,.31,2.81.8.83.5,1.45,1.27,2.21,1.83.78.57,1.64,1.02,2.35,1.64.21.18.4.37.61.56.06-.11.13-.22.18-.33,1.49-3.04.21-6.73-2.86-8.25-.07-.03-.13-.04-.19-.07.25-2.16-.57-4.51-2.3-5.73-.09-.09-.19-.15-.29-.23,2.09-4.4.28-9.68-4.12-11.83-1-.49-2.05-.75-3.09-.85-.11-3.19-1.88-6.22-4.94-7.73Z"/>
        <g>
          <path class="cls-49" d="m118.77,469.32s4.74-5.82,7.05-3.02c2.31,2.8-4.77,33.09-9.77,17.27-5-15.82,2.72-14.25,2.72-14.25Z"/>
          <path class="cls-24" d="m127.6,529.42c-17.75-8.49-11.58-47.86-11.58-47.86h-39.62s6.88,45.95-11.06,54.03c-41.01,18.47-54.34,53.57-54.34,53.57l29.97,75.09,99.26-10.69,41.14-71.99s-36.02-43.66-53.77-52.15Z"/>
          <g>
            <g>
              <path class="cls-12" d="m73.37,498.52s13.89,20.3,22.63,20.03c10.8-.33,19.65-18.97,19.6-25.51-.04-6.54-42.23,5.48-42.23,5.48Z"/>
              <path class="cls-22" d="m122.1,464.55c1.98,25.71-13.71,48.21-26.89,48.6-10.39.32-29.75-14.61-32.35-40.27-3.53-34.71,9.08-41.11,27-42.92,28.98-2.94,30.26,8.87,32.25,34.59Z"/>
            </g>
            <g>
              <path class="cls-12" d="m97.59,486.55s-1.41,7.43-3.51,7.58c-2.1.15-5.44-6.91-5.44-6.91l8.95-.67Z"/>
              <path class="cls-7" d="m97.59,486.55s-1.63,5.79-3.73,5.94c-2.1.15-5.24-5.3-5.24-5.3l8.97-.63Z"/>
            </g>
            <path class="cls-33" d="m105.49,472.14c-.03,1.7.99,3.1,2.27,3.12,1.28.02,2.34-1.34,2.36-3.05.03-1.7-.99-3.1-2.26-3.12-1.28-.02-2.34,1.34-2.37,3.05Z"/>
            <path class="cls-33" d="m79.77,472.92c.13,1.7-.79,3.16-2.07,3.26-1.27.1-2.42-1.2-2.55-2.9-.13-1.7.8-3.16,2.07-3.26,1.28-.1,2.42,1.2,2.55,2.9Z"/>
            <path d="m122.19,465.83h-.02c0,.12.02.25.02.38v-.38Z"/>
          </g>
        </g>
        <path class="cls-33" d="m141.01,448.75c0-3.1-1.58-5.82-3.98-7.43.03-.21.05-.42.04-.65,1.5-2.99-.33-4.94-3.38-6.41.02-.16.03-.32.03-.48,0-3.42-2.75-6.2-6.13-6.2-.05,0-.11.01-.17.01.17-.57.27-1.17.27-1.8,0-3.43-2.75-6.2-6.13-6.2-.91,0-1.77.21-2.54.56,0-.08.02-.16.02-.24,0-4.13-3.34-7.47-7.47-7.47-1.46,0-2.81.44-3.96,1.16-.45-1.37-1.86-2.33-3.69-2.16-1.97-.45-4.04.56-5.34,1.62-.06.04-.23.07-.45.1-1.28-2.28-3.68-3.83-6.48-3.83s-5.28,1.61-6.55,3.94c-1.21-3.49-4.49-6.01-8.39-6.01-4.93,0-8.92,4-8.92,8.92,0,.07.02.13.02.2-.98-.67-2.14-1.1-3.42-1.1-3.39,0-6.14,2.77-6.14,6.2,0,.41.05.81.12,1.19-.58.03-1.17.11-1.77.3-2.26.28-4.3,1.3-5.76,2.66-1.42,1.13-2.34,2.89-2.34,4.87,0,.85.18,1.66.49,2.39-1.9,1.64-3.13,4.03-3.13,6.74,0,1.88.59,3.62,1.58,5.05-2.78,1.51-4.69,4.42-4.69,7.81,0,4.31,3.05,7.9,7.11,8.74.36,1.28,1.15,2.35,2.15,3.15-.79,1.44-1.28,3.06-1.28,4.82,0,5.57,4.52,10.09,10.09,10.09,2.32,0,4.43-.81,6.13-2.13.02.01.05.02.07.03,0-.02,0-.05-.01-.07,2.36-1.85,3.9-4.69,3.9-7.92,0-1.24-.26-2.42-.67-3.53.4.1.8.17,1.23.17,2.79,0,5.05-2.26,5.05-5.05,0-.99-.3-1.92-.8-2.7,2.69-.79,4.89-2.66,6.13-5.12.67.33,1.42.54,2.23.54,1.41,0,2.68-.58,3.59-1.51,1.06.42,2.21.66,3.42.66,2.36,0,4.49-.91,6.12-2.37.82.24,1.67.41,2.56.41,1.29,0,2.52-.27,3.64-.75,1.55,3.57,5.11,6.07,9.25,6.07.5,0,.99-.08,1.48-.15-2.42,1.84-4,4.72-4,8,0,3.91,2.25,7.26,5.5,8.94-.11.55-.17,1.13-.17,1.71,0,1.59.44,3.08,1.15,4.39-1.24,1.68-2,3.73-2,5.98,0,5.58,4.52,10.09,10.09,10.09s10.09-4.51,10.09-10.09c0-2.24-.76-4.3-1.99-5.97.71-1.31,1.16-2.79,1.16-4.39,0-2.55-1.03-4.85-2.69-6.53,3.28-1.31,5.6-4.5,5.6-8.25,0-1.11-.23-2.17-.6-3.15,2.81-1.5,4.75-4.43,4.75-7.84Z"/>
        <path class="cls-37" d="m87.82,497.45c.06,2.17,2.93,5.04,6.45,5.12,3.51-.28,6.21-3.3,6.15-5.47-4.17-.88-8.48-.76-12.6.35Z"/>
      </g>
      <g>
        <polygon class="cls-32" points="48.82 489.27 40.5 487.1 26.55 482.83 15.63 483.05 1.31 490.64 0 492.64 0 513.3 17.73 501.99 40.36 492.16 50.12 509.87 57.35 504.38 48.82 489.27"/>
        <path class="cls-32" d="m24.18,489.99c-10.11.72-19.31,2.6-24.26,11.53l44.14-8.71c-4.24-2.54-10.51-3.49-19.87-2.83Z"/>
        <g>
          <path class="cls-49" d="m58.9,595.64c-15.12-7.23-10.52-46.67-10.52-46.67H3.68s4.25,29.79-3.68,43.25v67.78s108.2-1.75,108.2-11.77c0-27.61-34.18-45.36-49.3-52.59Z"/>
          <path class="cls-49" d="m58.17,531.84c-1.21,5.01-4.52,8.51-7.39,7.82-2.87-.69-4.21-5.32-2.99-10.33,1.21-5.01,4.52-8.51,7.39-7.82,2.87.69,4.21,5.32,2.99,10.33Z"/>
          <path class="cls-32" d="m25.45,473.17c-10.16,0-19.26,5.06-25.45,13.05v49.98c6.19,7.99,15.29,13.05,25.45,13.05,18.65,0,33.77-17.03,33.77-38.04s-15.12-38.04-33.77-38.04Z"/>
        </g>
        <path class="cls-12" d="m8.93,563.6s10.42,12.18,18.32,12.18c9.75,0,18.96-11.65,19.1-17.55.14-5.9-37.42,5.36-37.42,5.36Z"/>
        <path class="cls-23" d="m53.46,522.09c-1.09-23.25-3.07-33.96-29.28-32.1-10.06.71-19.21,2.58-24.18,11.39v46.43c4.28,13.65,12.61,23.59,27.98,23.59,22.38,0,26.57-26.07,25.48-49.31Z"/>
        <path class="cls-32" d="m38.54,482.66c-19.95,2.28-35.73.61-38.19,17.02h-.35v19.13c13.41,2.6,22.15-9.77,32.6-6.67,4.61,1.37,12.84,5.43,19.51,19.65-.63-4.77-6.51-20.4-13.68-26.35,8.79,3.39,14.61,16.75,15.09,20.47.15-1.64.68-12.02,1.36-16.75.99-6.8-12.57-26.92-16.34-26.49Z"/>
        <path class="cls-18" d="m63.16,597.73c-1.53-.77-2.97-1.47-4.26-2.08-2.18-1.04-3.94-2.77-5.37-4.94-6.39,4.49-15.46,7.32-25.55,7.32-.42,0-.82-.04-1.23-.04-10.24-.24-19.36-3.33-25.53-8.15-.37.83-.77,1.62-1.2,2.36v87.81h91.17s17.03-28.39,17.03-31.77c0-25.25-28.59-42.25-45.04-50.5Z"/>
        <g>
          <path class="cls-12" d="m28.91,544.7s-4.29,7.34-6.57,6.71c-2.28-.63-3.17-9.37-3.17-9.37l9.74,2.66Z"/>
          <path class="cls-9" d="m28.91,544.7s-3.91,5.52-6.19,4.88c-2.28-.63-3.55-7.59-3.55-7.59l9.74,2.71Z"/>
          <path class="cls-33" d="m12.59,529.51c.07,1.54-.8,2.83-1.96,2.88-1.15.05-2.14-1.15-2.22-2.68-.07-1.54.81-2.83,1.96-2.88,1.15-.05,2.15,1.15,2.22,2.69Z"/>
          <path class="cls-33" d="m37.22,529.51c-.07,1.54.8,2.83,1.96,2.88,1.15.05,2.14-1.15,2.22-2.68.07-1.54-.81-2.83-1.96-2.88-1.15-.05-2.15,1.15-2.22,2.69Z"/>
          <path class="cls-37" d="m34.87,555.22c-4.61,1-16.14-.03-20.98-1.69,1.18,1.12,3.91,3.07,8.97,3.68,5.89.71,9.87-.63,12.01-1.99Z"/>
          <g>
            <path class="cls-55" d="m23.15,560.2c4.45.41,10.19-3.34,12.17-5.27-.14.1-.29.2-.45.29-2.14,1.35-6.12,2.69-12.01,1.99-5.05-.61-7.78-2.56-8.96-3.67,1.19,1.57,5.09,6.28,9.25,6.67Z"/>
            <path class="cls-37" d="m23.15,560.2c-4.16-.39-8.06-5.1-9.25-6.67,0,0,0,0,0,0,0,0,0,0,0,0,7.22,13.55,16.37,9.28,21.46,1.38-.01,0-.02.01-.03.02-1.98,1.93-7.72,5.68-12.17,5.27Z"/>
          </g>
        </g>
      </g>
      <rect class="cls-33" x="151.3" y="559.45" width="38.07" height="57.1"/>
      <g>
        <path class="cls-37" d="m189.11,621.57c-18.11-8.66-11.81-55.91-11.81-55.91h-40.42s6.83,53.55-11.29,62.21c-17.31,8.28-51.78,30.47-54.79,52.13h175.13c-3.35-30.47-39.55-50.17-56.81-58.43Z"/>
        <g>
          <path class="cls-49" d="m180.09,548.78s4.84-5.94,7.19-3.08c2.35,2.86-4.87,33.76-9.96,17.62-5.1-16.14,2.77-14.54,2.77-14.54Z"/>
          <g>
            <path class="cls-12" d="m133.32,578.85s14.77,26.88,23.69,26.61c11.02-.34,20.79-23.26,20.74-29.93-.04-6.67-44.44,3.32-44.44,3.32Z"/>
            <path class="cls-23" d="m183.49,543.91c2.03,26.23-12.36,56.17-25.81,56.58-10.6.32-31.98-21.89-34.64-48.07-3.6-35.41,9.26-41.93,27.54-43.79,29.56-3,30.87,9.05,32.9,35.29Z"/>
          </g>
          <g>
            <path class="cls-12" d="m158.48,569.41s-1.44,7.58-3.58,7.73c-2.14.15-5.55-7.05-5.55-7.05l9.13-.68Z"/>
            <path class="cls-51" d="m158.48,569.41s-1.67,5.9-3.8,6.06c-2.14.15-5.35-5.41-5.35-5.41l9.15-.65Z"/>
          </g>
          <path d="m183.59,545.22l-.02-.02c0,.13.02.27.02.41v-.39Z"/>
          <path class="cls-37" d="m144.52,581.32s14.81,5.67,25.59-5.33c-3,6.92-13.74,17.61-25.59,5.33Z"/>
          <path class="cls-33" d="m140.87,555.55c0,1.81-1.47,3.28-3.28,3.28s-3.28-1.47-3.28-3.28,1.47-3.28,3.28-3.28,3.28,1.47,3.28,3.28Z"/>
          <path class="cls-33" d="m163.77,555.55c0,1.81,1.47,3.28,3.28,3.28s3.28-1.47,3.28-3.28-1.47-3.28-3.28-3.28-3.28,1.47-3.28,3.28Z"/>
          <path class="cls-20" d="m152.12,495.83s33.35-9.07,45.87,29.16c6.06,19.55,9.36,49.13,1.83,57.1-7.51,7.97-17.49,10.48-30.03,9.56,9.56-8.88,13.71-36.8,5.73-48.64-7.97-11.85-25.46-15.51-23.4-47.18Z"/>
          <path class="cls-20" d="m159.28,498.27c5.24,2.75,2.17,21.04-28.04,50.79-12.6,12.6-.56,29.31,13.54,42.44-16.05,0-39.92-6.91-38.46-37.05.25-8.51,20.24-73.4,52.95-56.18Z"/>
        </g>
      </g>
      <g>
        <path class="cls-20" d="m265.32,668.94c-28.67-12.4-11.98-53.17-11.98-53.17l-49.07.06s18.66,43.4-12.34,55.35c-5.16,1.99-11.74,4.91-18.47,8.81h112.87c-7.85-4.95-15.48-8.67-21.01-11.06Z"/>
        <g>
          <g>
            <path class="cls-12" d="m205.52,617.52s7.63,35.45,17.55,37.4c13.63,2.67,26.28-20.79,27.65-26.99,1.37-6.2-45.19-10.41-45.19-10.41Z"/>
            <path class="cls-49" d="m196.49,596.79c.62,4.51,3.67,7.81,6.81,7.37,3.14-.43,5.18-4.44,4.56-8.95-.62-4.5-3.67-7.81-6.82-7.38-3.14.43-5.18,4.44-4.56,8.95Z"/>
            <path class="cls-49" d="m267.18,608.41c-1.9,4.13-5.78,6.41-8.66,5.09-2.88-1.33-3.68-5.75-1.78-9.88,1.9-4.13,5.78-6.41,8.66-5.09,2.88,1.33,3.67,5.75,1.78,9.88Z"/>
            <path class="cls-53" d="m263.48,598.79c-3.66,24.75-24.42,52.82-38.25,50.11-10.42-2.04-26.04-32.25-22.97-57.08,4.15-33.59,19.63-35.09,36.97-32.94,28.04,3.46,27.92,15.17,24.25,39.92Z"/>
          </g>
          <g>
            <path class="cls-12" d="m235.74,622.41s-3.02,6.09-4.86,5.82c-1.83-.27-2.98-6.94-2.98-6.94l7.83,1.12Z"/>
            <path class="cls-15" d="m235.74,622.41s-2.81,4.64-4.65,4.37c-1.83-.27-3.2-5.52-3.2-5.52l7.84,1.15Z"/>
          </g>
          <path class="cls-33" d="m221.15,605.76c-.38,1.61-1.67,2.68-2.88,2.39-1.2-.29-1.87-1.83-1.49-3.43.38-1.61,1.67-2.68,2.88-2.39,1.21.29,1.88,1.83,1.49,3.44Z"/>
          <path class="cls-33" d="m245.68,610.17c-.53,1.56-.01,3.16,1.16,3.56,1.17.4,2.56-.55,3.09-2.12.53-1.56,0-3.16-1.16-3.56-1.17-.4-2.56.55-3.09,2.11Z"/>
          <g>
            <path class="cls-37" d="m243.23,631.3c-5.86,2.13-20.25-2.79-25.91-5.93,1.28,1.5,4.28,4.99,10.53,7.34,7.31,2.61,12.54.37,15.38-1.41Z"/>
            <g>
              <path class="cls-37" d="m227.66,637.2c5.59,2.09,13.44-3.82,16.17-6.28-.19.13-.39.26-.6.38-2.84,1.77-8.08,4.02-15.38,1.41-6.24-2.34-9.23-5.83-10.52-7.33,1.23,1.9,5.15,9.81,10.35,11.82Z"/>
              <path class="cls-37" d="m227.66,637.2c-5.19-2.02-9.12-9.93-10.35-11.82,0,0,0,0,0,0,0,0,0,0-.01,0,6.37,20.79,19.06,18.04,26.57,5.52-.02,0-.03.02-.04.03-2.73,2.46-10.57,8.37-16.17,6.28Z"/>
            </g>
          </g>
          <path class="cls-38" d="m277.24,596.15c-1.52-31.98-17.16-42.92-31.13-47.43-13.01-4.2-24.49-.75-40.03,16.81-22.21,27.41-26.52,40.22-24.61,54.14,2.15,12.85,17.51,26.82,26.08,31.97-13.07-31.77,6.65-57.53,6.78-59.32,2.7,2.91,6.46,5.46,10.69,7.41,2.5-5.65,9.98-13.47,9.97-13.5-4.34,7.84-6.3,12.22-7.02,14.74,6.78,2.64,14.31,3.68,20.25,3.44.57-4.25,1.16-12.55-1.55-19.76,0,.04,4.87,4.05,4.67,19.54,3.28-.36,5.82-1.05,7.13-1.8,3.07,12.51-4.77,50.02-14.99,67.33,23.86-6.73,35.06-42.93,33.74-73.56Z"/>
        </g>
      </g>
      <g>
        <path class="cls-13" d="m112.03,635.36l-53.62.06s11.08,25.79,3.32,44.57h48.76c-9.23-18.33,1.54-44.64,1.54-44.64Z"/>
        <g>
          <path class="cls-33" d="m129.73,599.69c0,25.66-17.42,46.45-38.9,46.45s-38.9-20.8-38.9-46.45,17.42-46.45,38.9-46.45,38.9,20.8,38.9,46.45Z"/>
          <g>
            <g>
              <path class="cls-12" d="m59.77,637.27s8.34,38.74,19.17,40.86c14.89,2.92,28.71-22.72,30.21-29.49,1.5-6.77-49.38-11.37-49.38-11.37Z"/>
              <path class="cls-23" d="m49.91,614.61c.68,4.92,4.01,8.53,7.44,8.06,3.43-.47,5.66-4.85,4.99-9.78-.68-4.92-4.02-8.53-7.45-8.06-3.43.47-5.66,4.85-4.98,9.78Z"/>
              <path class="cls-23" d="m127.15,627.32c-2.08,4.52-6.31,7-9.46,5.56-3.15-1.45-4.02-6.28-1.94-10.8,2.07-4.52,6.31-7,9.46-5.56,3.15,1.45,4.02,6.28,1.94,10.8Z"/>
              <path class="cls-23" d="m123.11,616.8c-4,27.05-26.69,57.71-41.8,54.75-11.38-2.23-28.45-35.24-25.1-62.37,4.53-36.71,21.45-38.34,40.4-36,30.64,3.78,30.5,16.57,26.5,43.62Z"/>
            </g>
            <g>
              <path class="cls-12" d="m92.8,641.09s-3.3,6.65-5.31,6.36c-2-.29-3.25-7.58-3.25-7.58l8.56,1.22Z"/>
              <path class="cls-34" d="m92.8,641.09s-3.07,5.07-5.08,4.78c-2-.3-3.49-6.03-3.49-6.03l8.57,1.26Z"/>
            </g>
            <path class="cls-33" d="m76.49,621.73c-.42,1.75-1.83,2.93-3.15,2.61-1.31-.32-2.04-2-1.62-3.75.42-1.76,1.83-2.93,3.14-2.62,1.32.31,2.05,2,1.63,3.75Z"/>
            <path class="cls-33" d="m103.78,628.26c-.58,1.71-.01,3.45,1.27,3.89,1.28.43,2.8-.6,3.37-2.31.58-1.71.01-3.45-1.27-3.89-1.28-.44-2.8.6-3.38,2.31Z"/>
            <g>
              <path class="cls-37" d="m96.69,652.7c-4.58.34-15.53-2.23-19.96-4.49.98,1.24,3.34,3.49,8.13,4.76,5.57,1.48,9.59.73,11.83-.28Z"/>
              <g>
                <path class="cls-55" d="m84.73,655.9c4.22,1,10.26-1.83,12.43-3.41-.15.08-.31.15-.47.22-2.25,1.01-6.26,1.76-11.83.28-4.78-1.28-7.14-3.52-8.12-4.76.93,1.67,4.05,6.74,8,7.68Z"/>
                <path class="cls-37" d="m84.73,655.9c-3.95-.94-7.07-6.01-8-7.68,0,0,0,0,0,0,0,0,0,0,0,0,5.11,14.03,14.49,11.16,20.47,4.26-.01,0-.02,0-.03.02-2.17,1.59-8.21,4.42-12.43,3.41Z"/>
              </g>
            </g>
          </g>
          <path class="cls-33" d="m90.3,572.21c32.63,0,30.83,14.93,34.71,32.28.69-3.1,1.06-6.34,1.06-9.69,0-22.03-16.02-39.88-35.77-39.88s-35.79,17.85-35.79,39.88c0,3.34.38,6.58,1.07,9.69,3.88-17.34,2.21-32.28,34.72-32.28Z"/>
          <g>
            <path class="cls-33" d="m115,611.68s-8.43-1.91-14.94-14.82c0,0,3.36,9.65,6.59,12.09,0,0-12.58.56-21.45-8.86,0,0,3.55,9.34,7.81,9.4,0,0-11.79,2.78-19.21-8.3,0,0,5.48,9.67,9.3,10.11,0,0-20.85,1.45-28.34-7.76-7.5-9.21,13.79-24.41,24.07-26.84,10.28-2.43,47.4,17.59,36.17,34.96Z"/>
            <path class="cls-33" d="m114.95,599.47s6.12,10.19,5.86,12.48c4.59-4.33,5.1-11.46,5.1-11.46l-4.34-23.16-22.92-8.94-16.05-.25-16.05,10.44-10.59,9.45,36.06,3.29s15.54-.77,16.56-.51c1.02.25,6.37,8.66,6.37,8.66Z"/>
          </g>
        </g>
      </g>
    </g>
  </g>
</svg>